<svg width="78" height="78" viewBox="0 0 78 78" fill="none" xmlns="http://www.w3.org/2000/svg">
<path d="M11.4137 11.3828C25.287 -2.49297 47.0651 -3.66384 62.3383 7.76681L65.4734 4.63285C67.2436 2.85978 70.2795 3.90769 70.5813 6.39474L72.3053 20.6352C72.5386 22.5717 70.8984 24.2149 68.9592 23.9815L54.7213 22.2574C52.233 21.957 51.1838 18.9208 52.9567 17.1505L55.948 14.1591C43.3055 5.52288 25.5161 7.54745 15.3605 20.3418C6.76973 31.1605 6.78929 46.8834 15.4067 57.6797C26.7945 71.9565 47.7511 72.8213 60.2986 60.2715C67.6404 52.9319 70.3577 42.721 68.515 33.2255C68.3794 32.5297 68.888 31.8828 69.5935 31.8828H76.3932C76.9409 31.8828 77.4229 32.2838 77.5109 32.8259C79.6876 46.5089 74.6008 61.1322 62.2028 70.386C48.1954 80.8442 28.4333 80.4851 14.7696 69.5784C-3.73234 54.814 -4.85143 27.6478 11.4137 11.3814V11.3828ZM39.001 18.0545C37.5788 18.0545 36.1593 18.1943 34.7804 18.4765C33.4349 18.7531 32.1119 19.1653 30.8475 19.6977C29.6055 20.2244 28.4081 20.8713 27.2877 21.6286C26.1798 22.3803 25.1361 23.241 24.1889 24.1869C23.2416 25.137 22.381 26.1808 21.6322 27.2874C20.8749 28.4093 20.2267 29.604 19.7014 30.8475C19.1663 32.1106 18.7555 33.4365 18.4789 34.7834C18.1967 36.1611 18.0528 37.5807 18.0528 39.0003C18.0528 40.4198 18.1967 41.845 18.4789 43.2226C18.7541 44.5696 19.1649 45.8899 19.7014 47.1572C20.2267 48.4007 20.8763 49.5954 21.6322 50.7173C22.381 51.8239 23.2416 52.8677 24.1889 53.8122C25.1361 54.7623 26.1798 55.623 27.2877 56.3691C28.4068 57.1264 29.6041 57.7789 30.8475 58.3056C32.1119 58.838 33.4349 59.2501 34.7804 59.5268C36.1593 59.809 37.5788 59.9502 39.001 59.9502C40.4205 59.9502 41.84 59.809 43.2203 59.5268C44.5657 59.2501 45.8888 58.838 47.1532 58.3056C48.3952 57.7789 49.5925 57.1264 50.713 56.3691C51.8223 55.623 52.8645 54.7609 53.8118 53.8122C54.759 52.8677 55.6182 51.8239 56.3685 50.7173C57.1243 49.5954 57.774 48.4007 58.2993 47.1572C58.8344 45.8899 59.2451 44.5696 59.5204 43.2226C59.8026 41.845 59.9465 40.4198 59.9465 39.0003C59.9465 37.5807 59.8026 36.1611 59.5204 34.7834C59.2451 33.4365 58.8344 32.1106 58.2993 30.8475C57.774 29.6053 57.1243 28.4107 56.3685 27.2874C55.6182 26.1808 54.759 25.137 53.8118 24.1869C52.8645 23.2424 51.8223 22.3803 50.713 21.6286C49.5925 20.8713 48.3952 20.2244 47.1532 19.6977C45.8888 19.1653 44.5657 18.7531 43.2203 18.4765C41.8386 18.1943 40.4191 18.0545 39.001 18.0545ZM29.4322 29.4642C29.2422 29.657 28.9279 29.657 28.7351 29.4698L26.6674 27.4131C26.4745 27.2259 26.4732 26.9129 26.6646 26.7187C26.8574 26.5259 27.1689 26.5259 27.3617 26.7131L29.4308 28.7698C29.6222 28.957 29.6236 29.27 29.4322 29.4642ZM25.4463 39.323C25.4463 39.5955 25.2255 39.819 24.9545 39.819L22.0387 39.8288C21.7691 39.8288 21.5455 39.6039 21.5455 39.3328C21.5442 39.0673 21.7649 38.8424 22.0359 38.8424L24.9503 38.8326C25.2227 38.8326 25.4435 39.052 25.4449 39.323H25.4463ZM29.6655 48.9848C29.8569 49.1776 29.8583 49.4906 29.6669 49.6834L27.6118 51.7499C27.419 51.9371 27.106 51.9427 26.9146 51.7499C26.7218 51.5571 26.7218 51.2441 26.9118 51.0513L28.9684 48.9848C29.1598 48.7976 29.4727 48.7976 29.6655 48.9848ZM39.3475 52.6958C39.6185 52.6958 39.8407 52.9152 39.8407 53.1862L39.8463 56.1036C39.8463 56.3761 39.6269 56.594 39.3545 56.594C39.0835 56.594 38.8613 56.3747 38.8613 56.1036L38.8543 53.1918C38.8529 52.9193 39.0737 52.6958 39.3461 52.6958H39.3475ZM48.7249 48.5991C48.9163 48.4119 49.2307 48.4119 49.4221 48.5991L51.4856 50.6559C51.677 50.8487 51.6784 51.1616 51.4884 51.3545C51.297 51.5473 50.9826 51.5473 50.7912 51.3545L48.7263 49.2978C48.5335 49.1049 48.5335 48.792 48.7249 48.5991ZM52.7318 39.2671C52.7318 38.9961 52.9526 38.7767 53.225 38.7767L56.1394 38.7711C56.4104 38.7711 56.6325 38.9905 56.6325 39.2615C56.6325 39.534 56.4118 39.7575 56.1408 39.7575H53.225C52.954 39.7575 52.7318 39.5382 52.7318 39.2671ZM48.9554 29.5844C48.7626 29.3972 48.7626 29.0842 48.954 28.8914L51.0148 26.8291C51.2062 26.6363 51.5191 26.6363 51.7119 26.8291C51.9033 27.0163 51.9033 27.3293 51.7119 27.5235L49.6512 29.5844C49.4598 29.7772 49.1468 29.7772 48.9554 29.5844ZM39.3182 25.3522C39.0471 25.3522 38.825 25.1273 38.825 24.8562V21.9444C38.825 21.6719 39.0471 21.4484 39.3182 21.4484C39.5892 21.4484 39.81 21.6719 39.81 21.9444V24.8562C39.81 25.1273 39.5892 25.3522 39.3182 25.3522ZM40.2626 39.833C40.169 39.9895 40.0391 40.1208 39.884 40.2158L44.8214 48.7654L44.0739 49.1986L38.9507 40.322C38.5973 40.2047 38.322 39.9154 38.2256 39.5522C38.0161 39.527 37.8289 39.4362 37.6808 39.2979C37.6626 39.2881 37.6458 39.2769 37.6305 39.2615L31.208 32.6122C31.0166 32.4347 30.895 32.179 30.895 31.8968C30.895 31.3589 31.3309 30.9257 31.8688 30.9257C32.172 30.9257 32.4444 31.0612 32.6232 31.2806L39.0206 37.909H39.0248L39.0276 37.9146C39.096 37.9845 39.1547 38.0655 39.2008 38.1549C39.2343 38.1521 39.2693 38.1493 39.3042 38.1493C39.4705 38.1493 39.6269 38.1857 39.768 38.2499C39.9147 38.1354 40.0936 38.0725 40.2738 38.0655L48.588 37.0316L48.5964 37.026H48.5978C48.8185 36.9994 49.0504 37.0511 49.2432 37.1992C49.633 37.4857 49.7155 38.039 49.4235 38.4246C49.2851 38.6132 49.0909 38.7222 48.88 38.7641C48.8618 38.7697 48.8437 38.7753 48.8227 38.7795L40.4778 39.8176C40.4079 39.8302 40.3353 39.8344 40.264 39.8316L40.2626 39.833ZM39.001 19.7466C49.6344 19.7466 58.256 28.3688 58.256 39.0003C58.256 49.6373 49.6344 58.2595 39.001 58.2595C28.3676 58.2595 19.7461 49.6373 19.7461 39.0003C19.7461 28.3688 28.3676 19.7466 39.001 19.7466Z" fill="white"/>
</svg>
