<svg width="66" height="73" viewBox="0 0 66 73" fill="none" xmlns="http://www.w3.org/2000/svg">
<path d="M60.7602 21.4136C60.4665 21.4136 60.1858 21.4528 59.9077 21.5012C56.9383 9.18155 46.001 0 32.9639 0C19.9295 0 8.9935 9.17763 6.02015 21.4934C5.76439 21.4541 5.50732 21.4136 5.23845 21.4136C2.35035 21.4136 0 23.758 0 26.6359V32.9043C0 35.7848 2.35166 38.1266 5.23845 38.1266C5.87588 38.1266 6.47658 37.9971 7.04318 37.7879C8.58298 41.6491 12.3485 44.3936 16.7646 44.3936C17.9214 44.3936 18.8605 43.46 18.8605 42.3055C18.8605 41.1522 17.9214 40.216 16.7646 40.216C13.2981 40.216 10.4782 37.4061 10.4782 33.949V27.3263C10.9307 15.0616 20.8279 5.22232 32.9639 5.22232C45.3859 5.22232 55.4916 15.5257 55.4916 28.1906C55.4916 28.2429 55.5165 28.286 55.5218 28.337V32.9043C55.5218 35.7848 57.8708 38.1266 60.7602 38.1266C63.6483 38.1266 66 35.7848 66 32.9043V26.6359C66 23.7567 63.6483 21.4136 60.7602 21.4136ZM50.1614 50.6371H44.0101C42.6421 50.6371 41.3594 51.304 40.575 52.4219L36.2744 58.5595C34.5916 60.9575 31.0202 60.9353 29.3715 58.5138L25.2532 52.4677C24.4741 51.3236 23.1769 50.6371 21.7866 50.6371H15.7468C7.96785 50.6371 1.65915 56.9238 1.65915 64.6788V70.9105C1.65915 72.0638 2.59824 73 3.75505 73H62.1479C63.3047 73 64.2438 72.0638 64.2438 70.9105V64.6788C64.2438 56.9238 57.9377 50.6371 50.1587 50.6371H50.1614ZM32.9626 45.4148C42.507 45.4148 50.2414 37.7042 50.2414 28.1919C50.2414 18.6795 42.507 10.969 32.9626 10.969C23.4235 10.969 15.6891 18.6795 15.6891 28.1919C15.6891 37.7042 23.4235 45.4148 32.9626 45.4148Z" fill="white"/>
</svg>
