<svg width="77" height="71" viewBox="0 0 77 71" fill="none" xmlns="http://www.w3.org/2000/svg">
<path fill-rule="evenodd" clip-rule="evenodd" d="M0.0262297 4.26106V4.84248H0.173946V6.00533H0.321661V7.02315H0.469377V7.89597H0.617094V8.76878H0.764809V9.49522H0.912525V10.368H1.06024V11.0958H1.20796V11.8223H1.35567V12.5487H1.50339V13.2765H1.6511V13.8579H1.79882V14.5844H1.94792V15.3108H2.09563V15.8936H2.24335V16.475H2.39244V17.2028H2.54016V17.7842H2.68788V18.3656H2.83697V18.9471H2.98469V19.5285H3.1324V20.1099H3.28012V20.6913H3.42784V21.2728H3.57555V21.8542H3.72327V22.4356H3.87098V22.872H4.0187V23.4534H4.16642V24.0362H4.31413V24.4726H4.46185V25.054H4.60956V25.4904H4.75728V26.0719H4.905V26.5069H5.05271V27.0897H5.20043V27.5261H5.34952V27.9625H5.49724V28.3989H5.64496V28.9803H5.79405V29.4167H5.94177V29.8531H6.08948V30.2896H6.2372V30.726H6.38491V31.1624H6.53263V31.5974H6.68035V32.0338H6.82944V32.4689H6.97716V32.9053H7.12626V33.3417H7.27397V33.7781H7.42169V34.2145H7.57078V34.6509H7.7185V34.9423H7.86621V35.3787H8.01531V35.8151H8.16303V36.2515H8.31074V36.5429H8.45984V36.9793H8.60756V37.4157H8.75527V37.7071H8.90437V38.1435H9.05208V38.4335H9.1998V38.8699H9.3489V39.16H9.49661V39.5964H9.64433V39.8878H9.79342V40.3242H9.94114V40.6156H10.0889V41.052H10.2366V41.342H10.3843V41.6334H10.532V42.0698H10.6811V42.3612H10.8288V42.6512H10.9765V42.9426H11.1242V43.379H11.272V43.6691H11.4197V43.9604H11.5688V44.2518H11.7165V44.5419H11.8642V44.9783H12.0119V45.2697H12.1596V45.5611H12.3074V45.8511H12.4565V46.1425H12.6042V46.4339H12.7519V46.7253H12.901V47.0153H13.0487V47.3067H13.1964V47.5981H13.3441V47.8881H13.4932V48.1795H13.6409V48.4709H13.7887V48.7623H13.9364V49.0523H14.0855V49.3437H14.2332V49.4887H14.3809V49.7801H14.5286V50.0715H14.6763V50.3615H14.824V50.6529H14.9718V50.7979H15.1195V51.0893H15.2672V51.3807H15.4149V51.6707H15.5626V51.8171H15.7103V52.1071H15.8581V52.3985H16.0058V52.5435H16.1549V52.8349H16.3026V53.1263H16.4503V53.2713H16.598V53.5627H16.7457V53.8528H16.8934V53.9978H17.0425V54.2878H17.1903V54.4328H17.338V54.7242H17.4871V54.8692H17.6348V55.1606H17.7825V55.3056H17.9302V55.597H18.0779V55.7421H18.2257V56.0334H18.3747V56.1785H18.5225V56.4685H18.6702V56.6149H18.8179V56.7599H18.9656V57.0513H19.1133V57.1963H19.261V57.4877H19.4088V57.6327H19.5565V57.7777H19.7056V58.0691H19.8533V58.2141H20.001V58.3591H20.1501V58.5041H20.2978V58.7955H20.4455V58.9406H20.5946V59.0869H20.7423V59.377H20.8901V59.5233H21.0392V59.6683H21.1869V59.8134H21.3346V59.9597H21.4837V60.2498H21.6314V60.3948H21.7791V60.5398H21.9282V60.6848H22.0759V60.8298H22.2236V60.9749H22.3727V61.1199H22.5205V61.2663H22.6682V61.5563H22.8173V61.7013H22.965V61.8463H23.1127V61.9913H23.2618V62.1377H23.4095V62.2827H23.5572V62.4277H23.7063V62.5728H23.854V62.7178H24.0018V62.8628H24.1509V63.0078H24.2986V63.1528H24.4463V63.2978H24.594V63.4442H24.7417V63.5892H24.8894V63.7342H25.0385V63.8793H25.334V64.0243H25.4817V64.1693H25.6294V64.3157H25.7771V64.4607H25.9248V64.6057H26.0725V64.7521H26.2216V64.8971H26.5171V65.0421H26.6648V65.1885H26.8125V65.3335H26.9602V65.4785H27.257V65.6235H27.4047V65.7699H27.5525V65.9149H27.8479V66.0613H27.997V66.2063H28.1447V66.3513H28.4415V66.4963H28.5892V66.6414H28.886V66.7864H29.0338V66.9314H29.3306V67.0764H29.4783V67.2214H29.7751V67.3678H30.0705V67.5128H30.2196V67.6578H30.5151V67.8028H30.8119V67.9479H31.1087V68.0929H31.2564V68.2393H31.5532V68.3843H31.8486V68.5306H32.1455V68.6757H32.59V68.8207H32.8868V68.9671H33.1836V69.1121H33.4804V69.2571H33.9249V69.4021H34.3695V69.5471H34.9617V69.6921H35.4062V69.8385H35.8522V69.9835H36.4444V70.1285H37.0366V70.2736H37.778V70.4186H38.5193V70.5636H39.4084V70.71H40.4452V70.855H42.0742V71H44.8891V70.855H46.5181V70.71H47.4071V70.5636H48.2962V70.4186H48.8884V70.2736H49.4807V70.1285H49.9252V69.9835H50.5174V69.8385H50.962V69.6921H51.4065V69.5471H51.7033V69.4021H52.1478V69.2571H52.4447V69.1121H52.7401V68.9671H53.0369V68.8207H53.4814V68.6757H53.7782V68.5306H53.926V68.3843H54.2228V68.2393H54.5182V68.0929H54.815V67.9479H55.1118V67.8028H55.2595V67.6578H55.5564V67.5128H55.7041V67.3678H56.0009V67.2214H56.2963V67.0764H56.4454V66.9314H56.5931V66.7864H56.8899V66.6414H57.0377V66.4963H57.3345V66.3513H57.4822V66.2063H57.6299V66.0613H57.779V65.9149H58.0758V65.7699H58.2235V65.6235H58.3712V65.4785H58.519V65.3335H58.6667V65.1885H58.9635V65.0421H59.1112V64.8971H59.2589V64.7521H59.4066V64.6057H59.5543V64.4607H59.7021V64.3157H59.8512V64.1693H59.9989V64.0243H60.1466V63.8793H60.2957V63.7342H60.4434V63.5892H60.5911V63.4442H60.7402V63.2978H60.8879V63.1528H61.0356V63.0078H61.1847V62.8628H61.3325V62.7178H61.4802V62.4264H61.6279V62.2814H61.7756V62.1363H61.9233V61.99H62.0724V61.845H62.2201V61.6999H62.3679V61.4086H62.5156V61.2635H62.6633V61.1172H62.811V60.8271H62.9601V60.6821H63.1078V60.5371H63.2555V60.3921H63.4032V60.1007H63.551V59.9557H63.6987V59.6643H63.8478V59.5193H63.9955V59.2279H64.1432V59.0829H64.2923V58.9365H64.44V58.6451H64.5877V58.3537H64.7354V58.2087H64.8832V57.9187H65.0309V57.7723H65.18V57.4823H65.3277V57.1909H65.4754V57.0458H65.6231V56.7545H65.7708V56.4631H65.9186V56.173H66.0663V56.028H66.214V55.7366H66.3617V55.4466H66.5108V55.1552H66.6585V54.8638H66.8062V54.5738H66.9553V54.2824H67.103V53.9924H67.2507V53.701H67.3998V53.4096H67.5476V52.9732H67.6953V52.6831H67.843V52.3918H67.9907V51.9553H68.1384V51.664H68.2861V51.2276H68.4339V50.7911H68.5816V50.2097H68.7293V49.6283H68.877V48.7555H69.0247V47.5913H69.1724V43.9564H69.0247V42.6472H68.877V41.9207H68.7293V41.1929H68.5816V40.6115H68.4339V40.0301H68.2861V39.5937H68.1384V39.1573H67.9907V38.7209H67.843V38.4295H67.6953V37.9931H67.5476V37.703H67.3998V37.4116H67.2507V37.2504L67.1693 37.2273L67.15 37.2924L67.0161 37.2558L66.9967 37.3222L66.8656 37.2856L66.8476 37.3493L66.6461 37.2937L66.6268 37.3588L66.4928 37.3222L66.4735 37.3886L66.2747 37.3344L66.2568 37.3994L66.0552 37.3439L66.0359 37.4089L65.7695 37.3358L65.7501 37.4008L65.5513 37.3466L65.532 37.4116L65.2642 37.3385L65.2449 37.4049L64.9784 37.3317L64.9591 37.3967L64.5587 37.2856L64.5408 37.3507L64.1404 37.2395L64.1211 37.3046L63.3881 37.1013L63.3687 37.1663L59.6275 36.1322L59.6468 36.0672L58.9138 35.8639L58.9331 35.7988L58.4679 35.6701L58.4872 35.605L58.0868 35.4939L58.1062 35.4288L57.7735 35.3367L57.7928 35.2716L57.4601 35.1795L57.478 35.1144L57.2102 35.0399L57.2295 34.9735L56.9631 34.8989L56.9824 34.8339L56.7836 34.7783L56.8016 34.7132L56.6014 34.6577L56.6207 34.5926L56.3529 34.5181L56.3709 34.453L56.1734 34.3988L56.1928 34.3338L55.9912 34.2782L56.0105 34.2104L55.878 34.1738L55.896 34.1101L55.7607 34.0722L55.78 34.0058L55.6488 33.9692L55.6668 33.9055L55.4666 33.8499L55.4859 33.7835L55.3507 33.7456L55.3686 33.6819L55.2375 33.6453L55.2568 33.5789L55.1215 33.5409L55.1408 33.4759L55.0773 33.4582L55.0966 33.3918L54.9627 33.3552L54.9807 33.2915L54.8454 33.2549L54.8647 33.1885L54.7336 33.1519L54.7515 33.0869L54.6852 33.0679L54.7046 33.0029L54.5734 32.9663L54.5927 32.9012L54.4575 32.8646L54.4768 32.7996L54.4105 32.7806L54.4298 32.7128L54.2973 32.6762L54.3153 32.6125L54.2476 32.5936L54.2669 32.5272L54.133 32.4906L54.151 32.4255L54.0861 32.4079L54.1054 32.3415L53.9715 32.3049L53.9895 32.2412L53.9232 32.2222L53.9425 32.1531L53.8763 32.1341L53.8942 32.0718L53.7603 32.0352L53.7782 31.9715L53.7092 31.9525L53.7285 31.8861L53.6637 31.8685L53.683 31.8034L53.5505 31.7668L53.5698 31.7018L53.5021 31.6828L53.5215 31.6164L53.4566 31.5988L53.4759 31.531L53.4083 31.512L53.4262 31.4497L53.2937 31.4131L53.3116 31.3494L53.2467 31.3318L53.2661 31.264L53.197 31.245L53.2164 31.18L53.1501 31.161L53.1694 31.0946L53.1004 31.0756L53.1184 31.0119L53.0535 30.9943L53.0728 30.9279L53.0065 30.9089L53.0245 30.8452L52.8919 30.8086L52.9113 30.7422L52.8436 30.7233L52.8616 30.6596L52.7953 30.6406L52.8146 30.5755L52.7498 30.5579L52.7691 30.4901L52.7014 30.4712L52.7194 30.4075L52.6531 30.3885L52.6724 30.3248L52.6034 30.3058L52.6227 30.2408L52.5579 30.2231L52.5772 30.1554L52.5109 30.1364L52.5302 30.0714L52.4654 30.0537L52.4833 29.9887L52.4143 29.9697L52.4336 29.9046L52.3673 29.887L52.3867 29.8206L52.3204 29.8016L52.3384 29.7366L52.2721 29.7176L52.2914 29.6512L52.2238 29.6322L52.2417 29.5685L52.1727 29.5496L52.192 29.4818L52.1271 29.4642L52.1644 29.3354L52.0981 29.3178L52.1175 29.2528L52.0512 29.2338L52.0692 29.1687L52.0015 29.1497L52.0208 29.0847L51.9518 29.0657L51.9711 28.9993L51.9063 28.9817L51.9242 28.918L51.8579 28.899L51.8773 28.8313L51.8124 28.8136L51.8317 28.7486L51.7627 28.7296L51.7999 28.5981L51.7309 28.5792L51.7489 28.5155L51.684 28.4979L51.7033 28.4342L51.6371 28.4165L51.6564 28.3515L51.5901 28.3325L51.6094 28.2661L51.5432 28.2471L51.5804 28.117L51.5142 28.0994L51.5335 28.0316L51.4659 28.0127L51.4838 27.9503L51.4162 27.9313L51.4534 27.7999L51.3886 27.7823L51.4079 27.7172L51.3416 27.6982L51.3609 27.6318L51.2947 27.6128L51.314 27.5478L51.2477 27.5288L51.2864 27.396L51.2188 27.377L51.2367 27.3147L51.1704 27.2957L51.1898 27.2293L51.1249 27.2117L51.1622 27.0816L51.0945 27.0626L51.1138 26.9962L51.0476 26.9786L51.0848 26.8471L51.0172 26.8281L51.0351 26.7644L50.9661 26.7455L50.9854 26.679L50.9206 26.6614L50.9578 26.53L50.893 26.5123L50.9123 26.4473L50.8446 26.4283L50.8819 26.2968L50.8143 26.2779L50.8336 26.2128L50.7673 26.1952L50.8046 26.0651L50.7369 26.0461L50.7563 25.9811L50.6886 25.9621L50.7273 25.8306L50.6652 25.813L50.6831 25.7493L50.6141 25.7303L50.6514 25.5989L50.5837 25.5799L50.603 25.5148L50.5368 25.4972L50.574 25.3685L50.505 25.3495L50.5243 25.2817L50.4608 25.2641L50.4981 25.134L50.4291 25.115L50.4664 24.9863L50.4001 24.9687L50.4194 24.9009L50.3545 24.8833L50.3918 24.7518L50.3256 24.7328L50.3628 24.6027L50.2952 24.5837L50.3145 24.5173L50.2496 24.4997L50.2869 24.371L50.2193 24.352L50.2579 24.2192L50.1916 24.2016L50.211 24.1365L50.1433 24.1175L50.182 23.9847L50.1157 23.9657L50.153 23.837L50.0867 23.818L50.124 23.6865L50.0564 23.6676L50.0757 23.6012L50.008 23.5822L50.0453 23.4534L49.9818 23.4358L50.0191 23.3043L49.9487 23.2854L49.9873 23.1526L49.9224 23.1336L49.9597 23.0048L49.8935 22.9872L49.9128 22.9222L49.8465 22.9032L49.8548 22.8734H49.783V22.7283H49.3385V22.5833H49.0417V22.4383H48.7449V22.2933H48.3003V22.1469H48.0049V22.0019H47.7081V21.8569H47.4113V21.7119H46.9667V21.5669H46.6699V21.4218H46.3745V21.2755H46.0777V21.1305H45.6332V20.9854H45.3363V20.8404H45.0395V20.694H44.595V20.549H44.2996V20.404H44.0028V20.2576H43.5582V20.1126H43.2614V19.9676H42.966V19.8226H42.5215V19.6776H42.2247V19.5326H41.9278V19.3862H41.4833V19.2412H41.1879V19.0948H40.8911V18.9498H40.4465V18.8048H40.1497V18.6597H39.8543V18.5147H39.4098V18.3697H39.113V18.2233H38.6684V18.0783H38.3716V17.9333H38.0762V17.7883H37.6317V17.6433H37.3348V17.4983H36.8903V17.3519H36.5935V17.2069H36.2981V17.0618H35.8535V16.9168H35.5567V16.7718H35.1122V16.6268H34.8154V16.4818H34.3722V16.3368H34.0754V16.1904H33.6309V16.0454H33.3355V15.9004H32.8909V15.754H32.5941V15.609H32.1496V15.4639H31.8528V15.3176H31.4083V15.1726H31.1128V15.0275H30.6683V14.8812H30.3715V14.7362H29.927V14.5911H29.6301V14.4448H29.1856V14.2997H28.8902V14.1547H28.4457V14.0084H28.0011V13.8633H27.7043V13.7183H27.2598V13.5733H26.963V13.4283H26.5184V13.2833H26.0739V13.1369H25.7785V12.9919H25.334V12.8469H25.0385V12.7019H24.594V12.5568H24.1495V12.4118H23.8527V12.2654H23.4095V12.1204H22.965V11.9754H22.6682V11.8304H22.2236V11.6854H21.7791V11.5404H21.4837V11.3953H21.0392V11.2503H20.5946V11.1053H20.1501V10.9603H19.8533V10.8153H19.4088V10.6703H18.9642V10.5252H18.6674V10.3802H18.2229V10.2352H17.7784V10.0902H17.3338V9.94518H17.0384V9.80016H16.5939V9.65514H16.1493V9.50877H15.7048V9.36375H15.2603V9.21738H14.9649V9.07236H14.5203V8.92735H14.0758V8.78233H13.6313V8.63731H13.1867V8.4923H12.8913V8.34593H12.4468V8.20091H12.0023V8.05589H11.5577V7.91087H11.1132V7.76586H10.6687V7.62084H10.2241V7.47582H9.781V7.33081H9.33647V7.18579H9.03966V7.04077H8.59513V6.89576H8.1506V6.75074H7.70607V6.60572H7.26155V6.46071H6.81702V6.31433H6.37249V6.16932H5.92796V6.0243H5.48343V5.87928H5.03891V5.73427H4.59438V5.58925H4.14985V5.44288H3.70532V5.29786H3.26079V5.15284H2.81626V5.00647H2.37174V4.86145H1.77811V4.71644H1.33358V4.57142H0.889056V4.4264H0.444528V4.28139H0L0.0262297 4.26106ZM50.933 0L50.8584 0.261572L50.9247 0.280547L50.7742 0.803691L50.8405 0.822666L50.7093 1.28076L50.7756 1.29973L50.6624 1.69277L50.7287 1.71174L50.6168 2.10478L50.6831 2.12375L50.5892 2.45038L50.6555 2.46935L50.5423 2.86239L50.6086 2.88136L50.5147 3.20799L50.581 3.22696L50.4871 3.55359L50.5533 3.57256L50.4595 3.89919L50.5257 3.91817L50.4319 4.24479L50.4981 4.26377L50.4222 4.52534L50.4885 4.54431L50.3946 4.8723L50.4608 4.89127L50.367 5.2179L50.4332 5.23687L50.3587 5.49844L50.425 5.51742L50.3504 5.77899L50.4167 5.79796L50.3228 6.12595L50.3891 6.14492L50.3145 6.40649L50.3808 6.42547L50.3062 6.68704L50.3725 6.70601L50.2979 6.96759L50.3642 6.98656L50.2883 7.24813L50.3545 7.26711L50.28 7.52868L50.3463 7.54766L50.2717 7.80923L50.338 7.8282L50.2634 8.08977L50.3297 8.10875L50.2551 8.37032L50.3214 8.38929L50.2469 8.65087L50.3131 8.66984L50.2565 8.86636L50.3228 8.88533L50.2482 9.1469L50.3145 9.16588L50.24 9.42745L50.3062 9.44643L50.2496 9.64294L50.3159 9.66192L50.2413 9.92349L50.3076 9.94247L50.251 10.139L50.3173 10.158L50.2427 10.4195L50.309 10.4385L50.2524 10.635L50.3187 10.654L50.2441 10.9156L50.3104 10.9345L50.2538 11.1311L50.32 11.15L50.2634 11.3466L50.3297 11.3655L50.2731 11.562L50.3394 11.581L50.2648 11.8426L50.3311 11.8616L50.2745 12.0581L50.3407 12.0771L50.2841 12.2736L50.3504 12.2926L50.2938 12.4891L50.3601 12.508L50.3035 12.7046L50.3697 12.7235L50.3131 12.9201L50.3794 12.939L50.3228 13.1355L50.3891 13.1545L50.3325 13.351L50.3987 13.37L50.3421 13.5665L50.4084 13.5855L50.3518 13.782L50.418 13.801L50.3615 13.9975L50.4277 14.0165L50.3711 14.213L50.4374 14.232L50.3808 14.4285L50.447 14.4475L50.3904 14.644L50.4567 14.663L50.4194 14.7944L50.4857 14.8134L50.4291 15.0099L50.4954 15.0289L50.4388 15.2254L50.505 15.2444L50.4484 15.4409L50.5147 15.4599L50.4774 15.5913L50.5437 15.6103L50.4871 15.8068L50.5533 15.8258L50.4967 16.0223L50.563 16.0413L50.5257 16.1728L50.592 16.1917L50.5354 16.3883L50.6017 16.4072L50.5644 16.5373L50.6306 16.5563L50.574 16.7528L50.6403 16.7718L50.603 16.9033L50.6693 16.9223L50.6127 17.1188L50.679 17.1377L50.6417 17.2692L50.708 17.2882L50.6514 17.4847L50.7176 17.5037L50.6803 17.6351L50.7466 17.6541L50.69 17.8506L50.7563 17.8696L50.719 17.9997L50.7853 18.0187L50.748 18.1488L50.8143 18.1678L50.7577 18.3643L50.8239 18.3833L50.7866 18.5134L50.8529 18.5323L50.8156 18.6638L50.8819 18.6828L50.8446 18.8142L50.9109 18.8332L50.8543 19.0297L50.9206 19.0487L50.8833 19.1788L50.9495 19.1978L50.9123 19.3293L50.9785 19.3482L50.9413 19.4797L51.0075 19.4987L50.9703 19.6288L51.0365 19.6478L50.9799 19.8443L51.0462 19.8632L51.0089 19.9934L51.0752 20.0123L51.0379 20.1438L51.1042 20.1628L51.0669 20.2929L51.1332 20.3119L51.0959 20.442L51.1622 20.4609L51.1249 20.5924L51.1911 20.6114L51.1539 20.7428L51.2201 20.7618L51.1829 20.8919L51.2491 20.9109L51.2118 21.0424L51.2781 21.0613L51.2408 21.1928L51.3071 21.2118L51.2698 21.3432L51.3361 21.3622L51.2988 21.4937L51.3651 21.5126L51.3278 21.6428L51.3941 21.6617L51.3568 21.7932L51.4231 21.8122L51.3858 21.9423L51.4521 21.9612L51.4148 22.0927L51.481 22.1117L51.4617 22.1767L51.528 22.1957L51.4907 22.3258L51.557 22.3448L51.5197 22.4749L51.586 22.4939L51.5487 22.6253L51.615 22.6443L51.5777 22.7758L51.644 22.7948L51.6246 22.8598L51.6909 22.8788L51.6536 23.0103L51.7199 23.0292L51.6826 23.1593L51.7489 23.1783L51.7116 23.3084L51.7779 23.3274L51.7585 23.3924L51.8248 23.4114L51.7875 23.5429L51.8538 23.5619L51.8165 23.6933L51.8828 23.7123L51.8635 23.7773L51.9297 23.7963L51.8924 23.9278L51.9587 23.9468L51.9214 24.0782L51.9877 24.0972L51.9684 24.1623L52.0346 24.1812L51.9974 24.3127L52.0636 24.3317L52.0264 24.4618L52.0926 24.4807L52.0733 24.5458L52.1396 24.5648L52.1023 24.6949L52.1686 24.7139L52.1492 24.7789L52.2155 24.7979L52.1782 24.9294L52.2445 24.9483L52.2252 25.0134L52.2914 25.0324L52.2541 25.1638L52.3204 25.1828L52.3011 25.2478L52.3673 25.2668L52.3301 25.3983L52.3963 25.4173L52.377 25.4823L52.4433 25.5013L52.406 25.6328L52.4723 25.6517L52.4529 25.7168L52.5192 25.7358L52.4819 25.8659L52.5482 25.8848L52.5289 25.9499L52.5951 25.9689L52.5758 26.0339L52.6421 26.0529L52.6048 26.1844L52.6711 26.2033L52.6517 26.2684L52.718 26.2874L52.6807 26.4188L52.747 26.4378L52.7277 26.5029L52.7939 26.5218L52.7746 26.5869L52.8409 26.6059L52.8036 26.7373L52.8699 26.7563L52.8505 26.8213L52.9168 26.8403L52.8975 26.9054L52.9637 26.9244L52.9444 26.9894L53.0107 27.0084L52.9734 27.1398L53.0397 27.1588L53.0203 27.2239L53.0866 27.2428L53.0673 27.3079L53.1335 27.3269L53.0963 27.457L53.1625 27.476L53.1432 27.541L53.2095 27.56L53.1901 27.625L53.2564 27.644L53.2371 27.7091L53.3033 27.728L53.284 27.7931L53.3503 27.8121L53.313 27.9422L53.3793 27.9612L53.3599 28.0262L53.4262 28.0452L53.4069 28.1102L53.4731 28.1292L53.4538 28.1943L53.5201 28.2132L53.5008 28.2783L53.567 28.2973L53.5477 28.3623L53.614 28.3813L53.5946 28.4463L53.6609 28.4653L53.6416 28.5304L53.7078 28.5494L53.6706 28.6795L53.7368 28.6984L53.7175 28.7635L53.7838 28.7825L53.7644 28.8475L53.8307 28.8665L53.8114 28.9315L53.8776 28.9505L53.8583 29.0156L53.9246 29.0346L53.9052 29.0996L53.9715 29.1186L53.9522 29.1836L54.0185 29.2026L53.9991 29.2677L54.0654 29.2866L54.0461 29.3517L54.1123 29.3707L54.093 29.4357L54.1593 29.4547L54.1399 29.5197L54.2062 29.5387L54.1869 29.6038L54.2531 29.6227L54.2338 29.6878L54.3001 29.7068L54.2808 29.7718L54.347 29.7908L54.3277 29.8559L54.394 29.8748L54.3746 29.9399L54.4409 29.9589L54.4216 30.0239L54.5541 30.0605L54.5348 30.1256L54.601 30.1445L54.5817 30.2096L54.648 30.2286L54.6286 30.2936L54.6949 30.3126L54.6756 30.3776L54.7418 30.3966L54.7225 30.4617L54.7888 30.4807L54.7695 30.5457L54.8357 30.5647L54.8164 30.6297L54.9489 30.6663L54.9296 30.7314L54.9959 30.7504L54.9765 30.8154L55.0428 30.8344L55.0235 30.8994L55.0897 30.9184L55.0704 30.9835L55.2029 31.0201L55.1836 31.0851L55.2499 31.1041L55.2305 31.1691L55.2968 31.1881L55.2775 31.2532L55.41 31.2898L55.3907 31.3548L55.457 31.3738L55.4376 31.4388L55.5039 31.4578L55.4846 31.5229L55.6171 31.5595L55.5978 31.6245L55.664 31.6435L55.6447 31.7086L55.7786 31.7451L55.7593 31.8102L55.8256 31.8292L55.8062 31.8942L55.9388 31.9308L55.9194 31.9959L55.9857 32.0149L55.9664 32.0799L56.0989 32.1165L56.0796 32.1815L56.2121 32.2181L56.1928 32.2832L56.259 32.3022L56.2397 32.3672L56.3736 32.4038L56.3543 32.4689L56.4882 32.5055L56.4689 32.5705L56.6028 32.6071L56.5835 32.6722L56.6497 32.6911L56.6304 32.7562L56.7643 32.7928L56.745 32.8578L56.8775 32.8944L56.8582 32.9595L56.9921 32.9961L56.9728 33.0611L57.1729 33.1167L57.1536 33.1818L57.2875 33.2184L57.2682 33.2834L57.4021 33.32L57.3828 33.3851L57.5167 33.4216L57.4974 33.4867L57.6975 33.5423L57.6782 33.6073L57.8784 33.6629L57.8591 33.7279L58.1255 33.8011L58.1062 33.8662L58.3064 33.9218L58.287 33.9868L58.4872 34.0424L58.4679 34.1074L58.7343 34.1806L58.715 34.2457L58.9814 34.3189L58.9621 34.3839L59.2948 34.4761L59.2755 34.5411L59.6096 34.6333L59.5902 34.6983L59.9906 34.8095L59.9713 34.8745L60.4379 35.0033L60.4186 35.0683L61.1516 35.2716L61.1323 35.3367L62.3982 35.6864L62.4175 35.6213L63.1506 35.8246L63.1699 35.7595L63.5703 35.8693L63.5896 35.8043L63.99 35.9154L64.0093 35.8503L64.2757 35.9235L64.2951 35.8585L64.5615 35.9317L64.5808 35.8666L64.781 35.9222L64.8003 35.8571L65.0668 35.9303L65.0861 35.8653L65.2863 35.9208L65.3056 35.8558L65.5058 35.9113L65.5251 35.8463L65.659 35.8829L65.6783 35.8178L65.8785 35.8734L65.8978 35.8083L66.0318 35.8449L66.0511 35.7799L66.1836 35.8165L66.2029 35.7514L66.3368 35.788L66.3562 35.7229L66.5564 35.7785L66.5757 35.7135L66.7096 35.75L66.7289 35.685L66.7952 35.704L66.8145 35.6389L66.9484 35.6755L66.9677 35.6105L67.1003 35.647L67.1196 35.582L67.2521 35.6186L67.2715 35.5535L67.4054 35.5901L67.4247 35.5251L67.491 35.544L67.5103 35.479L67.6428 35.5156L67.6622 35.4505L67.7284 35.4695L67.7477 35.4045L67.8817 35.441L67.901 35.376L68.0349 35.4126L68.0542 35.3475L68.1205 35.3665L68.1398 35.3014L68.2061 35.3204L68.2254 35.2554L68.3593 35.292L68.3786 35.2269L68.4449 35.2459L68.4642 35.1808L68.5968 35.2174L68.6161 35.1524L68.6824 35.1713L68.7017 35.1063L68.768 35.1253L68.7873 35.0602L68.8535 35.0792L68.8729 35.0141L69.0068 35.0507L69.0261 34.9857L69.0924 35.0046L69.1117 34.9396L69.178 34.9586L69.1973 34.8935L69.2636 34.9125L69.2829 34.8474L69.3491 34.8664L69.3685 34.8013L69.5024 34.8379L69.5217 34.7729L69.588 34.7919L69.6073 34.7268L69.6736 34.7458L69.6929 34.6807L69.7592 34.6997L69.7785 34.6346L69.8448 34.6536L69.8641 34.5886L69.9304 34.6075L69.9497 34.5425L70.0159 34.5615L70.0353 34.4964L70.1015 34.5154L70.1209 34.4503L70.1871 34.4693L70.2065 34.4042L70.2727 34.4232L70.292 34.3582L70.3583 34.3771L70.3776 34.3121L70.4439 34.3311L70.4632 34.266L70.5295 34.285L70.5488 34.2199L70.6151 34.2389L70.6344 34.1738L70.7007 34.1915L70.72 34.1264L70.7863 34.1454L70.8056 34.0803L70.8719 34.0993L70.8912 34.0342L70.9575 34.0532L70.9947 33.9218L71.061 33.9407L71.0803 33.8757L71.1466 33.8946L71.1659 33.8296L71.2322 33.8486L71.2515 33.7835L71.3178 33.8025L71.3357 33.7374L71.402 33.7564L71.4213 33.6914L71.4876 33.7103L71.5248 33.5789L71.5911 33.5978L71.6104 33.5328L71.6767 33.5518L71.696 33.4867L71.7623 33.5057L71.7996 33.3756L71.8658 33.3945L71.8852 33.3295L71.9514 33.3485L71.9707 33.2834L72.037 33.3024L72.0563 33.2373L72.1226 33.2563L72.1599 33.1248L72.2262 33.1438L72.2455 33.0788L72.3117 33.0977L72.349 32.9663L72.4153 32.9852L72.4346 32.9202L72.5009 32.9392L72.5382 32.8077L72.6044 32.8267L72.6237 32.7616L72.69 32.7806L72.7093 32.7155L72.7756 32.7345L72.8129 32.6044L72.8791 32.6234L72.9164 32.4933L72.9827 32.5122L73.002 32.4472L73.0683 32.4662L73.1055 32.3347L73.1718 32.3537L73.1911 32.2886L73.2574 32.3076L73.2947 32.1775L73.3609 32.1965L73.3982 32.065L73.4645 32.084L73.4838 32.0189L73.5501 32.0379L73.5873 31.9064L73.6536 31.9254L73.6909 31.7939L73.7571 31.8129L73.7944 31.6814L73.8607 31.7004L73.88 31.6354L73.9463 31.6543L73.9836 31.5229L74.0498 31.5419L74.0871 31.4117L74.1534 31.4307L74.1906 31.2993L74.2569 31.3182L74.2942 31.1881L74.3604 31.2071L74.3977 31.077L74.464 31.096L74.5013 30.9645L74.5675 30.9835L74.6048 30.8534L74.6711 30.8723L74.7083 30.7422L74.7746 30.7612L74.8119 30.6297L74.8781 30.6487L74.9347 30.4522L75.001 30.4712L75.0383 30.3411L75.1045 30.36L75.1418 30.2286L75.2081 30.2475L75.2647 30.051L75.3309 30.07L75.3682 29.9385L75.4345 29.9575L75.4911 29.761L75.5574 29.78L75.614 29.5834L75.6802 29.6024L75.7548 29.3408L75.821 29.3598L75.8956 29.0982L75.9618 29.1172L76.0737 28.7255L76.1399 28.7445L76.2904 28.2214L76.3567 28.2403L76.8261 26.6045L76.7598 26.5855L76.9282 25.9973L76.8619 25.9784L76.9558 25.6517L76.8896 25.6328L76.9834 25.3061L76.9172 25.2871L76.9917 25.0256L76.9254 25.0066L77 24.745L76.9337 24.7261L76.9903 24.5295L76.9241 24.5106L76.9807 24.314L76.9144 24.2951L76.971 24.0986L76.9047 24.0796L76.942 23.9481L76.8758 23.9291L76.9324 23.7326L76.8661 23.7136L76.9034 23.5835L76.8371 23.5646L76.8744 23.4331L76.8081 23.4141L76.8454 23.2827L76.7791 23.2637L76.8164 23.1336L76.7501 23.1146L76.7874 22.9845L76.7211 22.9655L76.7584 22.8341L76.6921 22.8151L76.7294 22.6836L76.6632 22.6646L76.7004 22.5345L76.6342 22.5156L76.6714 22.3855L76.6052 22.3665L76.6245 22.3014L76.5582 22.2825L76.5955 22.151L76.5292 22.132L76.5665 22.0006L76.5002 21.9816L76.5196 21.9165L76.4533 21.8975L76.4906 21.7674L76.4243 21.7485L76.4436 21.6834L76.3774 21.6644L76.3967 21.5994L76.3304 21.5804L76.3677 21.4489L76.3015 21.43L76.3208 21.3649L76.2545 21.3459L76.2918 21.2145L76.2255 21.1955L76.2449 21.1305L76.1786 21.1115L76.1979 21.0464L76.1316 21.0274L76.151 20.9624L76.0847 20.9434L76.122 20.812L76.0557 20.793L76.0751 20.7279L76.0088 20.709L76.0281 20.6439L75.9618 20.6263L75.9812 20.5612L75.9149 20.5423L75.9342 20.4772L75.868 20.4582L75.8873 20.3932L75.821 20.3742L75.8404 20.3091L75.7741 20.2902L75.8114 20.1587L75.7451 20.1397L75.7644 20.0747L75.6982 20.0557L75.7175 19.9906L75.6512 19.9717L75.6706 19.9066L75.6043 19.8876L75.6236 19.8226L75.5574 19.8036L75.5767 19.7386L75.5104 19.7196L75.5297 19.6545L75.4635 19.6356L75.4828 19.5705L75.4165 19.5515L75.4359 19.4865L75.3696 19.4675L75.3889 19.4024L75.2564 19.3659L75.2757 19.3008L75.2095 19.2818L75.2288 19.2168L75.1625 19.1978L75.1818 19.1327L75.1156 19.1138L75.1349 19.0487L75.0686 19.0297L75.088 18.9647L75.0217 18.9457L75.041 18.8807L74.9748 18.8617L74.9941 18.7966L74.8602 18.76L74.8795 18.695L74.8132 18.676L74.8326 18.611L74.7663 18.592L74.7856 18.5269L74.7194 18.5079L74.7387 18.4429L74.6048 18.4063L74.6241 18.3412L74.5579 18.3223L74.5772 18.2572L74.5109 18.2382L74.5302 18.1732L74.3963 18.1366L74.4157 18.0715L74.3494 18.0526L74.3687 17.9875L74.3025 17.9685L74.3218 17.9035L74.1893 17.8669L74.2086 17.8018L74.1423 17.7829L74.1616 17.7178L74.0291 17.6812L74.0484 17.6162L73.9822 17.5972L74.0015 17.5321L73.869 17.4955L73.8883 17.4305L73.822 17.4115L73.8414 17.3465L73.7075 17.3099L73.7268 17.2448L73.6605 17.2258L73.6798 17.1608L73.5473 17.1242L73.5666 17.0591L73.5004 17.0402L73.5197 16.9751L73.3858 16.9385L73.4051 16.8735L73.2726 16.8369L73.2919 16.7718L73.2257 16.7528L73.245 16.6878L73.1124 16.6512L73.1318 16.5861L72.9979 16.5495L73.0172 16.4845L72.8833 16.4479L72.9026 16.3828L72.8363 16.3639L72.8557 16.2988L72.7218 16.2622L72.7411 16.1972L72.6086 16.1606L72.6279 16.0955L72.494 16.0589L72.5133 15.9939L72.3794 15.9573L72.3987 15.8922L72.2662 15.8556L72.2855 15.7906L72.1516 15.754L72.1709 15.6889L72.0384 15.6523L72.0577 15.5873L71.9252 15.5507L71.9445 15.4856L71.8106 15.449L71.8299 15.384L71.696 15.3474L71.7154 15.2823L71.5152 15.2268L71.5345 15.1617L71.402 15.1251L71.4213 15.0601L71.2874 15.0235L71.3067 14.9584L71.1742 14.9218L71.1935 14.8568L70.9933 14.8012L71.0127 14.7362L70.8801 14.6996L70.8995 14.6345L70.6993 14.5789L70.7186 14.5139L70.5847 14.4773L70.604 14.4122L70.4715 14.3756L70.4908 14.3106L70.2907 14.255L70.31 14.19L70.1775 14.1534L70.1968 14.0883L70.0629 14.0517L70.0822 13.9867L69.9483 13.9501L69.9676 13.885L69.7674 13.8295L69.7868 13.7644L69.6529 13.7278L69.6722 13.6628L69.5397 13.6262L69.559 13.5611L69.4251 13.5245L69.4444 13.4595L69.2442 13.4039L69.2636 13.3388L69.1296 13.3022L69.149 13.2372L69.0151 13.2006L69.0344 13.1355L68.8342 13.08L68.8535 13.0149L68.721 12.9783L68.7403 12.9133L68.6064 12.8767L68.6258 12.8116L68.4256 12.7561L68.4449 12.691L68.3124 12.6544L68.3317 12.5894L68.1992 12.5528L68.2185 12.4877L68.0183 12.4321L68.0377 12.3671L67.9037 12.3305L67.9231 12.2654L67.7892 12.2289L67.8085 12.1638L67.6083 12.1082L67.6276 12.0432L67.4951 12.0066L67.5144 11.9415L67.3805 11.9049L67.3998 11.8399L67.1997 11.7843L67.219 11.7193L67.0851 11.6827L67.1044 11.6176L66.9719 11.581L66.9912 11.516L66.791 11.4604L66.8104 11.3953L66.6765 11.3588L66.6958 11.2937L66.4956 11.2381L66.5149 11.1731L66.381 11.1365L66.4004 11.0714L66.2678 11.0348L66.2871 10.9698L66.087 10.9142L66.1063 10.8492L65.9724 10.8126L65.9917 10.7475L65.7915 10.6919L65.8109 10.6269L65.677 10.5903L65.6963 10.5252L65.5638 10.4887L65.5831 10.4236L65.3829 10.368L65.4022 10.303L65.2683 10.2664L65.2877 10.2013L65.0875 10.1458L65.1068 10.0807L64.9729 10.0441L64.9922 9.97906L64.792 9.92349L64.8114 9.85844L64.6775 9.82185L64.6968 9.75679L64.4966 9.70122L64.5159 9.63617L64.3834 9.59958L64.4027 9.53452L64.2026 9.47895L64.2219 9.4139L64.088 9.37731L64.1073 9.31225L63.9071 9.25669L63.9265 9.19163L63.7925 9.15504L63.8119 9.08998L63.6117 9.03442L63.631 8.96936L63.4985 8.93277L63.5178 8.86771L63.3176 8.81215L63.337 8.74709L63.2031 8.7105L63.2224 8.64544L63.0222 8.58988L63.0415 8.52482L62.909 8.48823L62.9283 8.42318L62.7282 8.36761L62.7475 8.30256L62.615 8.26596L62.6343 8.20091L62.4341 8.14534L62.4534 8.08029L62.2533 8.02472L62.2726 7.95966L62.1387 7.92307L62.158 7.85802L61.9578 7.80245L61.9772 7.7374L61.8433 7.7008L61.8626 7.63575L61.6624 7.58018L61.6817 7.51513L61.4816 7.45956L61.5009 7.39451L61.3683 7.35791L61.3877 7.29286L61.1875 7.23729L61.2068 7.17224L61.0743 7.13564L61.0936 7.07059L60.8934 7.01502L60.9128 6.94997L60.7126 6.8944L60.7319 6.82935L60.598 6.79275L60.6173 6.7277L60.4172 6.67213L60.4365 6.60708L60.2363 6.55151L60.2556 6.48646L60.1217 6.44986L60.1411 6.38481L59.9409 6.32924L59.9602 6.26419L59.76 6.20862L59.7794 6.14357L59.6468 6.10697L59.6662 6.04192L59.466 5.98635L59.4853 5.9213L59.2851 5.86573L59.3045 5.80067L59.1043 5.74511L59.1236 5.68005L58.9897 5.64346L59.009 5.57841L58.8089 5.52284L58.8282 5.45778L58.628 5.40222L58.6473 5.33716L58.5134 5.30057L58.5328 5.23552L58.3326 5.17995L58.3519 5.11489L58.1517 5.05933L58.1711 4.99427L57.9709 4.93871L57.9902 4.87365L57.8577 4.83706L57.877 4.772L57.6768 4.71644L57.6962 4.65138L57.496 4.59582L57.5153 4.53076L57.3151 4.47519L57.3345 4.41014L57.1343 4.35457L57.1536 4.28952L57.0211 4.25292L57.0404 4.18787L56.8402 4.1323L56.8596 4.06725L56.6594 4.01168L56.6787 3.94663L56.4785 3.89106L56.4979 3.82601L56.2977 3.77044L56.317 3.70538L56.1845 3.66879L56.2038 3.60374L56.0036 3.54817L56.023 3.48312L55.8228 3.42755L55.8421 3.36249L55.6419 3.30693L55.6613 3.24187L55.4611 3.1863L55.4804 3.12125L55.2803 3.06568L55.2996 3.00063L55.0994 2.94506L55.1187 2.88001L54.9185 2.82444L54.9379 2.75939L54.7377 2.70382L54.757 2.63876L54.6231 2.60217L54.6424 2.53712L54.4423 2.48155L54.4616 2.4165L54.2614 2.36093L54.2808 2.29587L54.0806 2.24031L54.0999 2.17525L53.8997 2.11969L53.9191 2.05463L53.7189 1.99906L53.7382 1.93401L53.538 1.87844L53.5574 1.81339L53.3572 1.75782L53.3751 1.69277L53.175 1.6372L53.1943 1.57215L52.9941 1.51658L53.0134 1.45152L52.8133 1.39596L52.8326 1.3309L52.6324 1.27533L52.6517 1.21028L52.4516 1.15471L52.4709 1.08966L52.2707 1.03409L52.29 0.969037L52.0899 0.913471L52.1092 0.848416L51.909 0.792849L51.9283 0.727794L51.6619 0.654608L51.6812 0.589554L51.481 0.533987L51.5004 0.468933L51.3002 0.413365L51.3195 0.348312L51.1194 0.292744L51.1387 0.227689L50.9385 0.172122L50.933 0ZM65.1703 27.3404C62.3071 28.7825 58.3712 28.6795 57.8673 28.5087C58.3643 28.7106 62.2574 29.1782 65.2559 27.766C66.526 27.1751 67.1983 26.7414 67.5586 26.4595C69.0592 27.2198 70.1995 27.5722 71.0223 27.7863C70.6096 28.0276 69.871 28.464 68.5195 29.2121C65.416 30.9984 61.0508 31.386 60.4793 31.2721C61.0439 31.4158 65.3788 31.3873 68.6299 29.6038C70.281 28.7147 71.0016 28.1604 71.3178 27.8568C72.8419 28.1875 73.049 28.0628 73.0558 28.0628C73.0531 28.0452 72.9992 27.9557 71.6298 27.4014C71.7706 27.0395 71.9128 26.3294 71.8976 24.7816C71.8009 21.9084 70.0877 18.0688 69.853 17.4359C70.067 18.0756 71.4489 22.0954 71.4172 24.9361C71.3923 26.2359 71.3744 26.9122 71.3647 27.2903C70.622 26.9664 69.5507 26.5083 68.0956 25.6721C68.2144 25.2546 68.3276 24.5282 68.3648 23.1702C68.3842 20.1343 66.9981 15.9695 66.8145 15.3013C66.9816 15.9735 68.0597 20.2875 67.9258 23.2678C67.8651 24.3967 67.8292 25.0744 67.8071 25.4999C66.8352 24.9199 65.7046 24.1663 64.44 23.1119C64.5491 22.6918 64.6554 21.9938 64.7382 20.7889C64.8873 17.7612 63.8988 13.5381 63.7732 12.8821C63.8837 13.5435 64.6071 17.8737 64.3655 20.8309C64.2757 21.8244 64.2191 22.4654 64.1791 22.891C63.1423 22.006 62.1608 21.0302 61.2538 19.992C61.3394 19.6288 61.4346 19.0677 61.5285 18.1732C61.7618 15.5629 61.1682 11.9076 61.0964 11.3831C61.1571 11.9022 61.5492 15.6347 61.251 18.1745C61.1599 18.8996 61.0992 19.4011 61.0522 19.763C60.072 18.6191 59.1844 17.4102 58.3975 16.1863C58.4748 15.8746 58.5659 15.4084 58.6694 14.6969C58.9635 12.4443 58.6832 9.27159 58.6487 8.82028C58.6763 9.27701 58.8033 12.4972 58.4637 14.6738C58.3726 15.243 58.3077 15.6564 58.2567 15.96C57.3262 14.4814 56.5476 12.9905 55.9153 11.5932C55.9622 11.4021 56.0174 11.1487 56.0837 10.799C56.3377 9.35427 56.2853 7.32403 56.2784 7.04077C56.2811 7.32674 56.248 9.38137 55.9719 10.7706C55.9194 11.0403 55.8753 11.253 55.8421 11.4238C54.0847 7.45549 53.4759 4.3627 53.4552 4.3871C53.4759 4.3627 53.9218 7.69132 55.5177 11.8887C55.4238 11.9104 55.3092 11.9361 55.1643 11.9673C54.3788 12.1408 53.4055 11.5756 53.2882 11.4604C53.4014 11.5837 54.3373 12.3102 55.1519 12.1801C55.3382 12.1462 55.4804 12.1069 55.5895 12.0676C56.1665 13.5476 56.8886 15.1184 57.7748 16.662C57.5802 16.7217 57.3179 16.7989 56.9617 16.8965C55.5467 17.3099 53.7492 16.5536 53.5339 16.3788C53.7437 16.5712 55.4901 17.5809 56.9617 17.2245C57.4076 17.1161 57.7058 17.0009 57.9115 16.8992C58.6598 18.1786 59.5157 19.4323 60.4738 20.6059C60.2087 20.7022 59.847 20.8364 59.3335 21.0125C57.4532 21.6888 54.989 21.0125 54.7004 20.8269C54.989 21.0356 57.398 22.0046 59.3542 21.3893C59.9947 21.1847 60.4075 20.9976 60.6712 20.8431C61.5616 21.9057 62.5335 22.8937 63.5717 23.776C63.2155 23.9305 62.6854 24.1623 61.8888 24.4889C59.4122 25.5487 56.0989 25.0405 55.6792 24.8345C56.0906 25.0703 59.3542 25.9323 61.9413 24.9212C62.9228 24.5417 63.5013 24.226 63.8367 23.9969C65.1068 25.0391 66.2582 25.7629 67.2577 26.2982C66.8518 26.5069 66.2057 26.8376 65.1717 27.3364L65.1703 27.3404ZM45.502 52.4527C40.4576 57.0526 32.2932 59.0815 31.1542 59.0192C32.2987 59.152 40.5915 57.8983 45.93 53.2822C48.1954 51.3414 49.3261 50.0661 49.9017 49.28C53.4414 49.9915 55.9981 50.0661 57.8176 50.0403C57.1094 50.7722 55.8476 52.0909 53.5049 54.403C48.1706 59.8486 39.4084 63.1325 38.1659 63.2246C39.4139 63.1989 48.3252 60.6713 53.966 55.1471C56.8416 52.3755 57.9985 50.8237 58.4679 50.0186C61.8005 49.8302 62.1525 49.4562 62.1691 49.4535C62.1539 49.4182 61.9882 49.2651 58.842 48.9046C58.9193 48.0806 58.7895 46.5369 57.8453 43.356C55.947 37.4943 50.153 30.562 49.2943 29.3937C50.1116 30.5891 55.3341 38.0785 56.9493 43.9482C57.6658 46.6385 58.0275 48.0426 58.2332 48.8273C56.5117 48.5847 54.0364 48.25 50.5464 47.3568C50.5437 46.4312 50.3463 44.8685 49.6215 42.0508C47.8668 35.788 42.5518 28.0018 41.7787 26.7305C42.5187 28.0208 47.2898 36.2895 48.7766 42.5035C49.3205 44.8631 49.645 46.2794 49.8507 47.1684C47.5079 46.5274 44.7331 45.6193 41.5068 44.1678C41.4819 43.2408 41.29 41.7432 40.7475 39.2142C39.2662 32.8958 34.7339 24.7613 34.0865 23.4832C34.7063 24.7803 38.7526 33.2888 40.0048 39.5137C40.4079 41.6117 40.6688 42.9629 40.8386 43.8629C38.1797 42.6295 35.583 41.1807 33.1035 39.5598C33.0649 38.7629 32.931 37.554 32.5955 35.6579C31.5339 30.1486 28.1516 22.9615 27.6933 21.9206C28.1254 22.9547 31.1391 30.4183 32.024 35.8178C32.2656 37.3615 32.4367 38.4308 32.5541 39.2006C29.8593 37.4035 27.3164 35.418 24.9736 33.3471C24.9488 32.66 24.8618 31.6476 24.6534 30.1256C23.9286 25.3183 21.4754 18.9457 21.1358 18.035C21.4616 18.9593 23.6276 25.5176 24.2144 30.1947C24.3635 31.4199 24.4725 32.3089 24.5457 32.9608C21.7556 30.4441 19.2707 27.8175 17.1433 25.3034C17.1268 24.8819 17.0895 24.329 17.0205 23.5713C16.6891 20.4528 15.3832 16.3002 15.1982 15.7201C15.3735 16.3083 16.5193 20.5572 16.772 23.5768C16.823 24.1623 16.8589 24.6258 16.8893 24.9958C10.9241 17.8235 7.84137 11.8019 7.81376 11.8643C7.84275 11.8019 10.728 18.4036 16.4945 26.1356C16.3136 26.2345 16.0941 26.3538 15.8139 26.4988C14.3008 27.3038 11.9595 26.6926 11.6502 26.5232C11.9567 26.7143 14.3133 27.6765 15.9133 26.9433C16.2777 26.7685 16.5469 26.6072 16.7485 26.4636C18.8124 29.1836 21.2255 32.0067 23.9631 34.6807C23.5973 34.9165 23.1017 35.2228 22.4266 35.6267C19.758 37.2842 15.6082 36.7503 15.0629 36.5131C15.6068 36.7896 19.8008 37.8724 22.6212 36.303C23.4744 35.8259 24.0225 35.4194 24.3842 35.0927C26.6813 37.3019 29.187 39.3944 31.8528 41.2661C31.3641 41.6144 30.6987 42.0983 29.7461 42.7529C26.2727 45.2168 20.8003 45.2276 20.0963 45.0081C20.8127 45.2724 26.3486 45.8985 30.0126 43.5173C31.2108 42.7298 31.9494 42.1105 32.4009 41.6429C34.8623 43.3221 37.4467 44.8048 40.1083 46.03C39.4664 46.5518 38.511 47.3311 37.0629 48.4573C32.5886 52.0516 25.4665 52.8905 24.4808 52.7048C25.4679 52.9556 32.6977 52.8742 37.4273 49.3166C39.2248 47.9762 40.2284 46.9977 40.7834 46.3349C44.0152 47.7566 46.8135 48.5929 49.1894 49.1241C48.4757 49.7842 47.3422 50.8345 45.5061 52.4514L45.502 52.4527Z" fill="white"/>
</svg>
