<svg width="74" height="68" viewBox="0 0 74 68" fill="none" xmlns="http://www.w3.org/2000/svg">
<path d="M37.0016 26.7664C33.6485 26.7664 30.9181 29.4953 30.9181 32.8484C30.9181 36.2015 33.6469 38.9319 37.0016 38.9319C40.3547 38.9319 43.0852 36.2031 43.0852 32.8484C43.0852 29.4953 40.3563 26.7664 37.0016 26.7664ZM17.8737 0.00162142H8.14358C4.82616 0.00162142 2.12811 2.69804 2.12811 6.01547V15.7472C2.12811 17.4254 3.49173 18.789 5.1699 18.789C6.84807 18.789 8.21168 17.427 8.21168 15.7472L8.14521 6.08357H17.8753C19.5535 6.08357 20.9155 4.7232 20.9155 3.04179C20.9155 1.36037 19.5535 0 17.8753 0L17.8737 0.00162142ZM17.8737 61.6415L8.21006 61.708V51.9779C8.21006 50.2997 6.84807 48.9361 5.16828 48.9361C3.49011 48.9361 2.12649 50.2981 2.12649 51.9779V61.708C2.12649 65.0255 4.82454 67.7235 8.14196 67.7235H17.8721C19.5503 67.7235 20.9123 66.3631 20.9123 64.6817C20.9123 63.0003 19.5503 61.6415 17.8721 61.6415H17.8737ZM63.8345 0.00162142H54.1044C52.4262 0.00162142 51.0626 1.36199 51.0626 3.04341C51.0626 4.72482 52.4246 6.08519 54.1044 6.08519L63.7648 6.01547V15.7472C63.7648 17.4254 65.1268 18.789 66.8066 18.789C68.488 18.789 69.8484 17.427 69.8484 15.7472V6.01547C69.8484 2.69804 67.1487 0.00162142 63.8345 0.00162142ZM66.8066 48.9361C65.1284 48.9361 63.7648 50.2981 63.7648 51.9779L63.8329 61.6415H54.1027C52.4246 61.6415 51.061 63.0019 51.061 64.6817C51.061 66.3631 52.423 67.7235 54.1027 67.7235H63.8329C67.1487 67.7235 69.8467 65.0255 69.8467 61.708V51.9779C69.8467 50.2997 68.4864 48.9361 66.805 48.9361H66.8066ZM72.7961 29.972C67.1244 24.3781 53.2353 12.5741 37 12.5741C20.7647 12.5741 6.87563 24.3781 1.2039 29.972C-0.401302 31.5577 -0.401302 34.139 1.2039 35.7248C6.87563 41.3203 20.7647 53.1258 37 53.1258C53.2353 53.1258 67.1244 41.3203 72.7961 35.7248C74.4013 34.139 74.4013 31.5577 72.7961 29.972ZM37 45.0155C30.2808 45.0155 24.8345 39.5675 24.8345 32.85C24.8345 26.1308 30.2808 20.6845 37 20.6845C43.7192 20.6845 49.1655 26.1308 49.1655 32.85C49.1655 39.5675 43.7192 45.0155 37 45.0155Z" fill="white"/>
</svg>
