<svg width="80" height="78" viewBox="0 0 80 78" fill="none" xmlns="http://www.w3.org/2000/svg">
<path d="M38.679 4.18508C38.5588 4.18942 38.4386 4.19377 38.3184 4.19956C37.3996 4.24008 36.4794 4.31677 35.5696 4.42675C32.4942 5.96505 29.6594 9.10386 27.3247 13.6276C26.5158 15.1948 25.7915 16.8836 25.1547 18.6708C27.672 19.8386 30.3139 20.7185 33.0404 21.293C33.2883 21.3451 33.5421 21.3957 33.8122 21.4478C35.2801 21.7257 36.7748 21.9153 38.2768 22.0166C37.6371 22.6866 37.1681 23.5172 36.9365 24.4361C35.7447 24.3218 34.5618 24.1568 33.3952 23.9383C33.1518 23.8949 32.8861 23.8428 32.5848 23.7806C29.738 23.1916 26.9848 22.2973 24.3577 21.1107C22.8557 26.1597 22.0126 31.8642 21.9132 37.8191H34.5113L33.9636 40.3386H21.9147C22.026 46.2385 22.8675 51.8866 24.3577 56.8922C26.9833 55.7056 29.738 54.8113 32.5863 54.2223C32.6961 54.1991 32.803 54.1774 32.9054 54.1557C33.3388 55.0501 33.9458 55.8098 34.7191 56.3944C34.4163 56.4436 34.1135 56.4972 33.8122 56.5551C33.5421 56.6072 33.2913 56.6578 33.0419 56.7114C30.3139 57.2859 27.672 58.1657 25.1532 59.3321C25.79 61.1193 26.5143 62.8081 27.3232 64.3753C29.6564 68.9005 32.4928 72.0378 35.5681 73.5761C36.4779 73.6861 37.3967 73.7628 38.3109 73.8033C38.4327 73.8091 38.5544 73.8135 38.6775 73.8193V57.6925C38.7844 57.6954 38.8913 57.6983 38.9996 57.6983C39.8026 57.6983 40.561 57.5898 41.2616 57.3857V73.8207C41.4011 73.8164 41.5391 73.8106 41.6757 73.8033C42.5944 73.7614 43.5147 73.6861 44.4245 73.5761C47.4998 72.0393 50.3362 68.9019 52.6694 64.3753C53.5703 62.6301 54.3659 60.7358 55.0516 58.7214C52.4764 57.6534 49.787 56.8821 47.0204 56.4176C46.7711 56.3742 46.5202 56.3365 46.2486 56.296C45.4352 56.1774 44.613 56.0847 43.7863 56.0196C44.515 55.3829 45.0924 54.5841 45.4827 53.6521C45.8523 53.6955 46.2204 53.7433 46.5855 53.7954C46.9046 53.8403 47.1644 53.8808 47.4019 53.9213C50.2976 54.3974 53.1147 55.1875 55.8115 56.2787C57.1903 51.4265 57.9696 45.9968 58.075 40.3371H44.4215L44.9692 37.8177H58.0779C57.9829 32.1016 57.2022 26.617 55.8115 21.7213C53.1785 22.7864 50.4312 23.565 47.6052 24.0425C47.3009 23.1468 46.7636 22.3523 46.0646 21.7286L46.2427 21.7025C46.5202 21.662 46.7725 21.6244 47.013 21.581C49.784 21.1164 52.4749 20.3466 55.0486 19.28C54.3629 17.2656 53.5673 15.3714 52.6664 13.6247C50.3317 9.10097 47.4954 5.96215 44.42 4.42386C43.5087 4.31388 42.5915 4.23718 41.6772 4.19666C41.5377 4.18942 41.3981 4.18508 41.2571 4.1793V20.3972C40.2775 20.581 39.3929 21.0166 38.6731 21.6316V4.18074L38.679 4.18508ZM30.2263 5.48315C25.1013 6.90134 20.3681 9.42802 16.3295 12.9199C17.9518 14.3468 19.7061 15.6333 21.5584 16.7548C21.784 16.8908 22.0126 17.0269 22.2412 17.1586C22.544 17.3322 22.8482 17.503 23.154 17.6679C23.8397 15.7476 24.6219 13.9329 25.4976 12.247C26.9091 9.52931 28.5017 7.26312 30.2263 5.48315ZM14.443 14.6724C8.16475 20.9341 4.5833 29.0959 4.28497 37.8191H19.7358C19.8367 31.5227 20.7377 25.4824 22.3466 20.1309C21.8998 19.898 21.4575 19.6548 21.0197 19.4045C20.7881 19.2728 20.5536 19.1353 20.3013 18.9834C18.2278 17.7374 16.2642 16.2903 14.4445 14.6724H14.443ZM4.29091 40.3386C4.63377 49.2427 8.38887 57.351 14.4074 63.3623C16.2375 61.7314 18.213 60.2742 20.3013 59.0181C20.5477 58.869 20.7911 58.7286 21.0226 58.597C21.4605 58.3466 21.9013 58.1049 22.3466 57.8719C20.7495 52.5653 19.8501 46.58 19.7373 40.3371H4.29091V40.3386ZM16.2939 65.1134C20.2286 68.5083 24.9603 71.077 30.2293 72.5241C28.5046 70.7441 26.9106 68.4765 25.4976 65.7559C24.6219 64.07 23.8397 62.2553 23.154 60.3335C22.8468 60.4985 22.5425 60.6678 22.2397 60.8429C22.0111 60.9746 21.784 61.1106 21.557 61.2466C19.6928 62.3768 17.9265 63.6735 16.2939 65.1119V65.1134ZM49.7647 72.5241C55.39 70.9786 60.4037 68.1567 64.4883 64.4144C62.7176 62.9427 60.8059 61.6374 58.7859 60.5202C58.5336 60.3827 58.3065 60.2583 58.0913 60.1468C57.7573 59.9717 57.4219 59.801 57.0835 59.6374C56.3414 61.8183 55.4761 63.8688 54.495 65.7573C53.082 68.4765 51.4879 70.7456 49.7633 72.5255L49.7647 72.5241ZM66.3213 62.6055C71.9095 56.6795 75.3751 48.8752 75.7046 40.3386H60.2583C60.1514 46.308 59.3232 52.0429 57.8538 57.1744C58.3184 57.3944 58.7785 57.6216 59.2341 57.8604C59.4968 57.9993 59.7373 58.1281 59.9673 58.254C62.216 59.4898 64.3473 60.95 66.3198 62.6069L66.3213 62.6055ZM75.7121 37.8191C75.4256 29.4823 72.1039 21.5868 66.2857 15.4263C64.3236 17.0703 62.2041 18.5217 59.9673 19.7489C59.7373 19.8777 59.4968 20.005 59.2356 20.1425C58.78 20.3799 58.3184 20.6099 57.8553 20.8285C59.3365 26.0048 60.1662 31.7948 60.2612 37.8191H75.7121ZM64.4527 13.6189C60.2464 9.76085 55.2416 6.99395 49.7677 5.48171C51.4924 7.26167 53.085 9.52787 54.4965 12.247C55.4775 14.1355 56.3429 16.1861 57.085 18.3669C57.4219 18.2034 57.7573 18.0326 58.0898 17.859C58.3065 17.7461 58.5351 17.6216 58.7859 17.4827C60.7926 16.3742 62.6924 15.0776 64.4527 13.6189ZM37.4931 32.0524L34.1863 47.2775C33.9429 48.4164 33.7974 49.4584 33.7974 50.3599C33.7974 54.3439 36.0831 56.0515 39.0026 56.0515C41.6297 56.0515 44.1098 54.5334 44.3532 51.166C44.0608 51.3078 43.672 51.4511 42.7963 51.4511C41.4338 51.4511 40.8015 51.0242 40.8015 49.6971C40.8015 49.2702 40.849 48.7956 40.9959 48.1791L44.4987 32.0538H37.4931V32.0524ZM38.4668 25.7443C38.4668 27.8311 40.1692 29.4909 42.3095 29.4909C44.4497 29.4909 46.2011 27.8311 46.2011 25.7443C46.2011 23.6576 44.4497 21.95 42.3095 21.95C40.1692 21.95 38.4668 23.6576 38.4668 25.7443ZM38.6805 29.8267V30.4041H39.5087C39.2148 30.2362 38.9373 30.0423 38.6805 29.8267ZM40 78C29.3165 78 19.2712 73.9452 11.7165 66.5764C4.16178 59.2105 0 49.4178 0 39C0 28.5822 4.16178 18.788 11.7165 11.4236C11.8219 11.3209 11.9273 11.2196 12.0327 11.1183C12.2419 10.9186 12.4497 10.7246 12.659 10.5365C20.0787 3.74371 29.7915 0 40 0C50.639 0 60.6501 4.0259 68.1929 11.3353C68.2241 11.3657 68.2538 11.3932 68.285 11.4236C68.4601 11.5958 68.6338 11.768 68.8059 11.9417C76.0252 19.2395 80 28.8484 80 39C80 49.4178 75.8397 59.2105 68.285 66.5764C60.7288 73.9437 50.6835 78 40 78Z" fill="white"/>
</svg>
