<svg width="32" height="32" viewBox="0 0 32 32" fill="none" xmlns="http://www.w3.org/2000/svg">
<path d="M11.834 14.1583V14.139L12.3861 9.67181H10.0849C9.84556 9.67181 9.63321 9.8417 9.58301 10.0734L8.67568 14.1931C8.69498 15.0463 9.39383 15.7375 10.2548 15.7375C11.1236 15.7375 11.834 15.0309 11.834 14.1583Z" fill="white"/>
<path d="M14.085 15.7375C14.9537 15.7375 15.6641 15.0309 15.6641 14.1583V9.67181H13.0618L12.5058 14.1776C12.5135 15.0386 13.2201 15.7375 14.085 15.7375Z" fill="white"/>
<path d="M16.3359 9.67181V14.1583C16.3359 15.0309 17.0463 15.7413 17.9151 15.7375C18.7799 15.7375 19.4826 15.0386 19.4942 14.1776L18.9382 9.67181H16.3359Z" fill="white"/>
<path d="M17.4633 19.5135C17.4633 20.556 18.305 21.3977 19.3475 21.3977C20.4363 21.3977 21.1545 20.6332 21.1583 19.556C21.1583 19.4324 21.1429 19.3359 21.1274 19.2432H19.3437V19.888H20.4132C20.3707 20.166 20.0888 20.7027 19.3437 20.7027C18.6989 20.7027 18.1738 20.1699 18.1738 19.5135C18.1738 18.8571 18.6989 18.3243 19.3437 18.3243C19.7104 18.3243 19.9576 18.4788 20.0965 18.6139L20.6101 18.1236C20.2819 17.8147 19.8572 17.6293 19.3475 17.6293C18.305 17.6293 17.4633 18.471 17.4633 19.5135Z" fill="white"/>
<path d="M20.1699 14.1622C20.1699 15.0309 20.8765 15.7413 21.7491 15.7413C22.6101 15.7413 23.3089 15.0502 23.3282 14.1931L22.4209 10.0734C22.3707 9.8417 22.1583 9.67181 21.9189 9.67181H19.6178L20.1699 14.1429V14.1622Z" fill="white"/>
<path fill-rule="evenodd" clip-rule="evenodd" d="M0 16C0 7.16344 7.16344 0 16 0C24.8366 0 32 7.16344 32 16C32 24.8366 24.8366 32 16 32C7.16344 32 0 24.8366 0 16ZM21.9189 9C22.4711 9 22.9576 9.38996 23.0772 9.9305L24.0039 14.1236V14.1583C24.0039 14.9498 23.5908 15.6486 22.973 16.0502V21.7799C22.973 22.4324 22.444 22.9614 21.7915 22.9614H10.251C9.59846 22.9614 9.0695 22.4324 9.0695 21.7799V16.0734C8.42857 15.6757 8 14.9653 8 14.1583V14.1236L8.92664 9.9305C9.04633 9.38996 9.53282 9 10.0849 9H21.9189Z" fill="white"/>
</svg>
