<svg width="70" height="70" viewBox="0 0 70 70" fill="none" xmlns="http://www.w3.org/2000/svg">
<path d="M40.3036 28.6362C40.3036 27.4627 39.3557 26.5148 38.1822 26.5148H29.6977C28.5266 26.5148 27.5762 27.4627 27.5762 28.6362V34.282C29.1134 32.4465 31.4216 31.278 34.002 31.278C36.5146 31.278 38.7677 32.3851 40.3036 34.1366V28.6362ZM34.002 32.2409C29.907 32.2409 26.587 35.5609 26.587 39.6558C26.587 43.7507 29.907 47.0707 34.002 47.0707C38.0969 47.0707 41.417 43.7519 41.417 39.6558C41.417 35.5609 38.0982 32.2409 34.002 32.2409ZM33.4114 38.5838L35.252 39.5317C36.1874 40.0131 36.6826 41.0011 36.5146 42.048C36.3692 42.952 35.756 43.6504 34.9173 43.9074V44.4377C34.9173 44.8314 34.5975 45.1511 34.2038 45.1511C33.8101 45.1511 33.4904 44.8327 33.4904 44.4377V43.9437C32.5914 43.7431 31.8204 43.1338 31.4379 42.2574C31.28 41.8963 31.4467 41.4763 31.8078 41.3196C32.1702 41.1616 32.5889 41.3283 32.7457 41.6894C33.0052 42.2862 33.6158 42.6448 34.2615 42.5897C34.2916 42.5871 34.3267 42.5834 34.3606 42.5771C34.9549 42.4831 35.0815 41.9753 35.1066 41.8211C35.1605 41.48 35.0564 41.0324 34.5988 40.7967L32.7582 39.8489C31.8141 39.3637 31.31 38.3318 31.5069 37.2811C31.6987 36.258 32.4736 35.5233 33.4904 35.3841V34.8676C33.4904 34.4739 33.8089 34.1542 34.2038 34.1542C34.5975 34.1542 34.9173 34.4739 34.9173 34.8676V35.5546C35.6445 35.8292 36.245 36.3784 36.566 37.1169C36.724 37.478 36.5585 37.898 36.1961 38.0547C35.835 38.2114 35.4163 38.0447 35.2583 37.6848C34.9987 37.088 34.3881 36.7219 33.7437 36.7846C33.0867 36.8536 32.9413 37.3814 32.9099 37.5419C32.846 37.8854 32.9438 38.3381 33.4114 38.5788V38.5838ZM27.5762 45.0283V58.3335H40.3036V45.1737C38.7677 46.9253 36.5146 48.0324 34.002 48.0324C31.4204 48.0324 29.1121 46.8651 27.5762 45.0283ZM61.4089 0.0197446L51.8712 1.38387C50.3353 1.60203 49.7097 3.47895 50.8067 4.57601L53.0109 6.78018L45.3176 14.4734L32.6792 4.88946C31.5107 4.00303 29.8795 4.03062 28.7372 4.96594L8.58607 21.5285C7.22569 22.6469 7.0326 24.6504 8.14723 26.0083C8.7779 26.7731 9.68941 27.1706 10.6085 27.1706C11.3181 27.1706 12.034 26.9336 12.6246 26.4471L30.8349 11.4781L43.6839 21.2213C44.9464 22.1792 46.7281 22.0614 47.8565 20.9342L57.5108 11.28L58.9828 12.7507C60.0786 13.8503 61.9581 13.2221 62.1775 11.6863L63.5391 2.14868C63.7172 0.908681 62.6527 -0.159547 61.4089 0.0197446ZM58.3333 32.8791C58.3333 31.7055 57.3855 30.7589 56.2119 30.7589H47.7274C46.5563 30.7589 45.6059 31.7068 45.6059 32.8791V58.3335H58.3333V32.8791ZM66.8178 63.637H3.18216C1.42558 63.637 0 65.0626 0 66.8191C0 68.5757 1.42558 70 3.18216 70H66.8178C68.5744 70 70 68.5744 70 66.8191C70 65.0626 68.5744 63.637 66.8178 63.637ZM22.2726 39.2433C22.2726 38.0697 21.3247 37.1219 20.1512 37.1219H11.6667C10.4956 37.1219 9.54523 38.0697 9.54523 39.2433V58.3335H22.2726V39.2433Z" fill="white"/>
</svg>
