<svg width="61" height="71" viewBox="0 0 61 71" fill="none" xmlns="http://www.w3.org/2000/svg">
<path d="M8.24112 30.5724L0.384595 30.6437C0.177506 30.6437 0.00257309 30.4822 0.00257309 30.2685L0 30.2507C0 30.046 0.169788 29.8756 0.37945 29.8667L8.2334 29.8044C8.44306 29.7955 8.61671 29.9646 8.61671 30.1706V30.1973C8.62057 30.4021 8.45078 30.5724 8.24112 30.5724ZM40.1238 10.3727L43.9942 3.61523C44.0984 3.4283 44.3312 3.36472 44.51 3.47154L44.5293 3.48044C44.712 3.57836 44.775 3.81106 44.6721 3.98909L40.8056 10.7465C40.7014 10.9334 40.4686 10.9958 40.2859 10.8889L40.2666 10.88C40.0865 10.7821 40.0209 10.5494 40.1226 10.3714L40.1238 10.3727ZM29.242 8.14985L29.1726 0.384031C29.17 0.179299 29.3398 0 29.5494 0H29.57C29.7797 0 29.952 0.169126 29.9546 0.37513L30.0228 8.14095C30.0254 8.34569 29.8556 8.51608 29.6459 8.52498H29.6253C29.4157 8.52498 29.2446 8.35586 29.242 8.14985ZM18.6933 11.6049L14.7046 4.90975C14.5979 4.73045 14.6596 4.49901 14.8397 4.4011L14.8577 4.3833C15.0378 4.28538 15.2706 4.33879 15.376 4.51682L19.366 11.2119C19.4715 11.39 19.4124 11.6227 19.2323 11.7295L19.2143 11.7384C19.0342 11.8452 18.7988 11.7829 18.692 11.6049H18.6933ZM36.9751 67.5348L30.8498 67.5615H24.6436C24.6436 67.5615 24.223 67.8922 25.2765 68.6602C26.3312 69.427 29.8594 70.7762 29.8594 70.7762C29.8594 70.7762 30.3752 70.9809 30.9064 71V70.9809V70.9822L31.0261 70.972H31.0299L31.0544 70.9695L31.0788 70.9669H31.0827C31.4621 70.9237 31.7335 70.8118 31.8506 70.7559L31.9252 70.7228C31.9252 70.7228 35.4084 69.3036 36.4464 68.5178C37.4844 67.7319 36.9763 67.5361 36.9763 67.5361L36.9751 67.5348ZM24.6333 58.4834H37.0561C37.3056 58.4834 37.5101 58.6805 37.5101 58.9297V60.34C37.5101 60.5892 37.3056 60.7863 37.0561 60.7863H36.3564V62.1164C36.3216 62.0732 36.2689 62.0452 36.211 62.0452H25.6019C25.5453 62.0452 25.4951 62.0706 25.4617 62.1101V60.7876H24.6333C24.3838 60.7876 24.1806 60.5905 24.1806 60.3412V58.931C24.1806 58.6818 24.3838 58.4846 24.6333 58.4846V58.4834ZM25.4617 67.4725H36.3577V66.651C36.3229 66.6943 36.2702 66.7223 36.2123 66.7223H25.6032C25.5466 66.7223 25.4964 66.6968 25.463 66.6574V67.4725H25.4617ZM36.3577 66.384V65.2332C36.3229 65.2764 36.2702 65.3044 36.2123 65.3044H25.6032C25.5466 65.3044 25.4964 65.279 25.463 65.2395V66.3776C25.4964 66.3382 25.5466 66.3128 25.6032 66.3128H36.2123C36.2702 66.3128 36.3242 66.3408 36.3577 66.384ZM36.3577 64.9649V63.8077C36.3229 63.8535 36.2702 63.8853 36.2123 63.8853H25.6032C25.5466 63.8853 25.4964 63.8573 25.463 63.8153V64.9585C25.4964 64.9191 25.5466 64.8937 25.6032 64.8937H36.2123C36.2702 64.8937 36.3242 64.9216 36.3577 64.9649ZM36.3577 63.5368V62.386C36.3229 62.4292 36.2702 62.4572 36.2123 62.4572H25.6032C25.5466 62.4572 25.4964 62.4318 25.463 62.3924V63.5305C25.4964 63.491 25.5466 63.4656 25.6032 63.4656H36.2123C36.2702 63.4656 36.3242 63.4936 36.3577 63.5368ZM47.7939 30.1007C47.7939 30.1007 47.7694 22.8613 41.176 18.1665C41.176 18.1665 37.4947 15.051 30.8126 15.0065C24.1355 15.051 20.4658 18.1665 20.4658 18.1665C13.8737 22.8613 13.8621 30.1007 13.8621 30.1007C13.0916 36.0277 19.8587 46.3457 19.8587 46.3457C23.4988 51.6395 24.4468 58.3956 24.4468 58.3956H27.3628C27.3525 58.3511 27.3499 58.3041 27.3538 58.2558L27.3551 58.2316C27.3846 57.8298 27.768 52.7738 27.2419 48.3396C26.892 45.3971 26.1164 42.5016 25.4025 40.2775C24.7375 38.2073 24.1188 36.703 23.949 36.2999L23.9104 36.2401C23.8718 36.1689 23.8487 36.0862 23.8487 36.001C23.8487 35.926 23.8654 35.8548 23.8937 35.7912L23.7574 35.4708L24.1021 35.5585C24.1806 35.5127 24.2706 35.4873 24.3671 35.4873H24.3722C24.7208 35.4873 24.9768 35.6284 25.1838 35.8383C25.3511 36.0087 25.4681 36.2096 25.5813 36.4054C25.6636 36.5453 25.7421 36.6813 25.8128 36.7564C25.8411 36.7869 25.8694 36.8072 25.8926 36.8072H25.8977C25.9196 36.8072 25.9466 36.7869 25.9736 36.7564C26.0469 36.6763 26.1228 36.5415 26.2 36.4029C26.3093 36.2019 26.4238 35.9972 26.5884 35.823C26.7943 35.6055 27.0502 35.4593 27.4052 35.4593H27.4104C28.0844 35.4593 28.3532 35.9222 28.6169 36.3736L28.6207 36.3812C28.7005 36.5186 28.779 36.6521 28.8523 36.7297C28.8806 36.7602 28.9089 36.7805 28.932 36.7805C29.0118 36.7805 29.1224 36.5834 29.2382 36.3762L29.269 36.3202C29.3694 36.1371 29.4761 35.954 29.6266 35.7963C29.8324 35.5788 30.0884 35.4326 30.4434 35.4326H30.4485C30.7984 35.4326 31.0531 35.5738 31.2602 35.7848C31.4261 35.954 31.5431 36.1523 31.6551 36.3469L31.6628 36.3596C31.7824 36.5605 31.8956 36.7538 31.9689 36.7538H31.9753C32.0448 36.7538 32.1554 36.5605 32.2673 36.3583L32.2853 36.3278C32.5374 35.8789 32.8011 35.4123 33.4738 35.3983L33.4906 35.397C34.1556 35.397 34.4257 35.8586 34.6868 36.3037L34.7022 36.3316C34.8193 36.5326 34.9325 36.7271 35.0096 36.7271H35.0148C35.083 36.7271 35.191 36.5351 35.3042 36.3342L35.3183 36.31C35.5717 35.8599 35.838 35.3856 36.512 35.3728L36.5197 35.3716C36.6226 35.3716 36.7139 35.4008 36.7911 35.4491L37.1217 35.3627L36.9931 35.6742C37.0239 35.7403 37.0407 35.8141 37.0407 35.8866C37.0407 35.9705 37.0175 36.057 36.9738 36.1358L36.9378 36.1918C36.7101 36.7398 35.7094 39.2081 34.8579 42.4049C34.3768 44.2068 33.9433 46.2389 33.7221 48.2849C33.569 49.7181 33.542 51.2949 33.5767 52.7585C33.6436 55.6324 33.942 58.0726 33.9562 58.1807C33.9665 58.2558 33.9588 58.3295 33.9369 58.3969H37.2117C37.2117 58.3969 38.161 51.6408 41.7999 46.347C41.7999 46.347 48.5682 36.029 47.7977 30.1019L47.7939 30.1007ZM28.3455 58.3956H32.9799C32.9696 58.3664 32.9632 58.3359 32.9593 58.3054C32.9529 58.2697 32.6403 55.7507 32.5696 52.7763C32.5349 51.2758 32.5606 49.657 32.7201 48.1857C33.0326 45.2915 33.7568 42.4329 34.4514 40.1834C34.7408 39.2449 35.0251 38.412 35.272 37.7266C35.1949 37.7431 35.1125 37.7533 35.0225 37.7559L35.0084 37.7571C34.3356 37.7571 34.0655 37.2892 33.8057 36.8378L33.7915 36.8149C33.6745 36.6152 33.5626 36.427 33.4893 36.427H33.4841C33.4121 36.427 33.3028 36.6228 33.1883 36.825L33.1729 36.8517C32.9195 37.3032 32.6545 37.7737 31.9766 37.7737H31.9689C31.6216 37.7737 31.3656 37.6312 31.1586 37.4214C30.9901 37.2498 30.8743 37.0552 30.7637 36.8632L30.7572 36.8479C30.6402 36.647 30.5257 36.4524 30.4498 36.4524C30.3649 36.4702 30.2569 36.6635 30.1437 36.8645L30.127 36.895C29.8761 37.3388 29.6125 37.794 28.9475 37.8067L28.932 37.808C28.2709 37.808 27.9956 37.3502 27.7384 36.914L27.7204 36.8835C27.6419 36.7449 27.566 36.6101 27.4914 36.5313C27.4605 36.4995 27.4335 36.4792 27.4117 36.4792H27.4065C27.3293 36.497 27.2226 36.6852 27.1107 36.8861L27.1081 36.8899C26.9962 37.0933 26.8817 37.2981 26.7184 37.4697C26.5164 37.6821 26.263 37.8258 25.9119 37.8347L25.9042 37.836C25.8013 37.836 25.7061 37.8245 25.6212 37.8055C26.0379 38.941 26.5627 40.4899 27.0451 42.2574C27.5429 44.0797 27.9982 46.1397 28.2464 48.2252C28.433 49.7969 28.5088 51.45 28.5256 52.9518C28.559 55.9172 28.3648 58.3015 28.3609 58.3371L28.3506 58.3956H28.3455ZM52.7601 29.0122L60.6167 28.9499C60.8263 28.9499 60.9974 29.1113 61 29.325V29.3428C61.0025 29.5488 60.834 29.7179 60.6244 29.7179L52.7679 29.7891C52.5582 29.7891 52.3858 29.62 52.3833 29.414V29.3962C52.3807 29.1902 52.5505 29.0122 52.7601 29.0122ZM48.7997 18.3102L55.5719 14.3732C55.752 14.2664 55.9848 14.3287 56.0942 14.5067L56.1044 14.5245C56.2112 14.7025 56.1495 14.9353 55.9694 15.0332L49.1985 18.9778C49.0171 19.0858 48.7817 19.0223 48.6762 18.8442L48.6659 18.8264C48.5605 18.6471 48.6209 18.4157 48.801 18.3089L48.7997 18.3102ZM11.3076 19.8183L4.46849 15.9894C4.28584 15.8915 4.22153 15.6588 4.32443 15.4808L4.33472 15.463C4.43634 15.285 4.66915 15.2214 4.8518 15.3206L11.6922 19.1405C11.8748 19.2473 11.9391 19.4711 11.8375 19.6581L11.8272 19.6759C11.723 19.8539 11.4902 19.9175 11.3076 19.8183Z" fill="white"/>
</svg>
