<svg width="80" height="72" viewBox="0 0 80 72" fill="none" xmlns="http://www.w3.org/2000/svg">
<path d="M22.6361 17.1828L18.3016 13.5266C20.107 9.33944 18.7845 4.31694 14.9113 1.66429C10.5409 -1.33065 4.60146 -0.173284 1.64392 4.25023C-1.31505 8.67229 -0.170149 14.6868 4.19881 17.6789C7.42573 19.8906 11.5052 19.8253 14.6118 17.8616L19.0796 21.6296C20.0698 19.9892 21.2634 18.4939 22.6361 17.1814V17.1828ZM37.2519 15.4207C46.7521 15.4207 54.4554 23.2162 54.4554 32.8334C54.4554 42.4491 46.7535 50.2446 37.2519 50.2446C27.7516 50.2446 20.0497 42.4491 20.0497 32.8334C20.0497 23.2177 27.7516 15.4207 37.2519 15.4207ZM42.8288 38.9393C42.204 39.5238 41.4876 40.0125 40.7052 40.3794C40.5877 40.4346 40.4688 40.4868 40.3484 40.5361C39.3926 40.9306 38.3466 41.1481 37.2504 41.1481C36.213 41.1481 35.2214 40.9523 34.3072 40.5984C34.1869 40.5506 34.0665 40.5013 33.9476 40.4491C33.1695 40.1024 32.4545 39.6383 31.8254 39.077C30.1145 37.5527 29.0341 35.3207 29.0341 32.8319C29.0341 28.2387 32.7124 24.5157 37.2504 24.5157C41.7885 24.5157 45.4668 28.2402 45.4668 32.8319C45.4668 35.2467 44.4508 37.4193 42.8273 38.9378L42.8288 38.9393ZM41.5506 29.7848C41.5363 29.7964 41.522 29.8094 41.5091 29.8239L39.0043 32.5201C38.9184 32.5941 38.8653 32.7028 38.8639 32.8203C38.8481 33.4454 38.7149 34.1227 38.4885 34.7261C38.4799 34.7478 38.4741 34.7696 38.4698 34.7913L38.0715 36.8116C37.9339 37.3671 37.613 37.7253 37.2533 37.7253C36.8936 37.7253 36.5727 37.3671 36.4394 36.8305L36.0368 34.7913C36.0325 34.7696 36.0267 34.7478 36.0181 34.7261C35.7917 34.1227 35.6585 33.4454 35.6427 32.8203C35.6398 32.7057 35.5883 32.5999 35.5066 32.5274L32.9947 29.8239C32.9818 29.8094 32.9675 29.7964 32.9531 29.7848C32.8098 29.6673 32.7797 29.4788 32.8815 29.3337C33.0061 29.1597 33.2741 29.1118 33.4632 29.2278L35.7459 31.1437C35.8949 31.2699 36.1113 31.2699 36.2603 31.1437L36.2961 31.1118C36.3219 31.0901 36.3448 31.0669 36.3649 31.0393C36.3735 31.0263 36.3835 31.0147 36.3936 31.0016C36.4738 31.0408 36.5598 31.0712 36.6457 31.0988L36.9839 31.6107L36.4466 32.9697L37.2519 34.056L38.0586 32.9697L37.5213 31.6107L37.858 31.0988C37.944 31.0712 38.0285 31.0408 38.1102 31.0016C38.1202 31.0147 38.1302 31.0263 38.1403 31.0393C38.1546 31.0596 38.1933 31.0973 38.2119 31.1147C38.2177 31.1191 38.2406 31.1408 38.2449 31.1452C38.3939 31.2714 38.6103 31.2714 38.7593 31.1452L41.0419 29.2293C41.2311 29.1147 41.499 29.1611 41.6237 29.3352C41.7269 29.4802 41.6968 29.6687 41.552 29.7862L41.5506 29.7848ZM37.2519 27.94C37.9182 27.94 38.4612 28.4882 38.4612 29.1626C38.4612 29.837 37.9182 30.3852 37.2519 30.3852C36.5856 30.3852 36.0439 29.837 36.0439 29.1626C36.0439 28.4896 36.5856 27.94 37.2519 27.94ZM42.2771 28.8595C41.8959 28.3199 41.1336 28.1851 40.5791 28.5607C40.5676 28.5679 40.5562 28.5766 40.5447 28.5853L39.1763 29.734C39.2293 29.5527 39.2665 29.3627 39.2665 29.164C39.2665 28.0386 38.3652 27.1263 37.2519 27.1263C36.1399 27.1263 35.2386 28.0386 35.2386 29.164C35.2386 29.3642 35.2744 29.5527 35.3275 29.734L33.959 28.5853C33.949 28.5766 33.9361 28.5679 33.9261 28.5607C33.3715 28.1851 32.6092 28.3199 32.2281 28.8609C31.8799 29.354 31.9673 30.011 32.4272 30.4026L34.8446 33.0031C34.879 33.6601 35.0223 34.3562 35.253 34.9842L35.6542 37.0103C35.8849 37.94 36.5111 38.5419 37.2533 38.5419C37.9956 38.5419 38.6232 37.94 38.8567 36.99L39.2522 34.9842C39.4843 34.3548 39.6276 33.6601 39.6606 33.0031L42.0779 30.4026C42.5379 30.011 42.6253 29.3526 42.2771 28.8595ZM49.2984 30.8798C49.2884 30.4722 48.857 30.2663 48.4544 30.2764L46.6446 30.3243C46.3695 29.1771 45.9454 28.3025 45.3894 27.4483L45.3937 27.4135L46.6403 26.0719C46.9169 25.7775 46.9054 25.3032 46.6131 25.0219L44.3319 22.8246C44.0396 22.5447 43.5782 22.5549 43.3002 22.8507L42.0751 24.1778C41.1738 23.6542 40.3871 23.2829 39.2408 23.0799V23.0712L39.1949 21.2394C39.1849 20.8333 38.808 20.5491 38.4054 20.5607L35.2587 20.6419C34.856 20.652 34.7142 20.9479 34.7242 21.3554L34.7701 23.1872C33.6366 23.4657 32.7425 23.8979 31.8971 24.4592L31.8469 24.4548L30.5129 23.193C30.222 22.9131 29.7491 22.9262 29.4711 23.2206L27.2974 25.5309C27.0209 25.8254 27.0295 26.2924 27.3218 26.5723L28.6343 27.8834C28.117 28.7956 27.7516 29.6136 27.551 30.8232H27.5424L25.7327 30.8696C25.33 30.8798 25.1136 31.1205 25.1237 31.5266L25.2039 34.7116C25.2139 35.1191 25.4446 35.4019 25.8473 35.3918L27.6571 35.3453C27.9322 36.4926 28.3563 37.3294 28.9109 38.1851L28.9051 38.2011L27.6585 39.5339C27.3805 39.8298 27.3934 40.2982 27.6857 40.5796L29.9684 42.7754C30.2607 43.0553 30.7206 43.0452 30.9986 42.7493L31.8254 41.9212L32.3255 41.4193C32.8528 41.7254 33.3758 41.9777 33.949 42.175C34.0636 42.2141 34.1897 42.2518 34.3087 42.2881L34.313 42.2895C34.6124 42.378 34.9535 42.452 35.273 42.5129V42.5216L35.2902 43.4251L35.3117 44.3534C35.3232 44.7595 35.4965 45.1206 35.8992 45.109L39.0444 45.0278C39.4471 45.0176 39.7896 44.6434 39.7781 44.2359L39.758 43.4251L39.7308 42.4056C39.9486 42.3534 40.1535 42.2924 40.3484 42.2301C40.4716 42.1895 40.5906 42.146 40.7052 42.1024C41.3658 41.8472 41.9217 41.5238 42.5035 41.1365V41.1438L42.8288 41.4556L43.8132 42.4041C44.1041 42.684 44.564 42.6724 44.8406 42.3766L47.0072 40.0676C47.2851 39.7718 47.2722 39.3048 46.9799 39.0248L45.6674 37.7543C46.1847 36.8421 46.5429 35.8211 46.7507 34.8537H46.7593L48.569 34.8044C48.9717 34.7942 49.3887 34.4751 49.3772 34.0676L49.297 30.8812L49.2984 30.8798ZM30.5659 58.3273L31.7968 53.6543C29.9282 53.1525 28.1615 52.4056 26.5294 51.4382L25.0449 57.0771C23.1219 57.4107 21.3307 58.497 20.15 60.2606C17.8502 63.6993 18.7386 68.3767 22.1375 70.7059C25.5378 73.0351 30.1575 72.1345 32.4588 68.6928C34.7357 65.2875 33.8788 60.6797 30.5659 58.3273ZM76.6184 22.5607C73.0977 20.1502 68.3132 21.0828 65.9288 24.6462C65.509 25.2757 65.2267 25.9515 65.0074 26.639L57.7769 27.1263C58.2699 28.9407 58.555 30.8406 58.5579 32.8087L65.3786 32.349C65.9474 33.5643 66.8072 34.6579 67.9865 35.4657C71.5071 37.8791 76.2931 36.9465 78.676 33.383C81.059 29.8196 80.1376 24.9755 76.6169 22.5621L76.6184 22.5607Z" fill="white"/>
</svg>
