<svg width="59" height="74" viewBox="0 0 59 74" fill="none" xmlns="http://www.w3.org/2000/svg">
<path d="M24.9769 69.4179C24.41 68.8598 24.4046 67.9505 24.9623 67.3845C25.5226 66.8186 26.4357 66.8106 27.004 67.3686C27.5683 67.9267 27.5763 68.836 27.016 69.4019C26.4583 69.9679 25.5426 69.9679 24.9769 69.4179ZM29.5927 27.3812L29.2201 27.0207C27.8438 25.6673 25.5027 25.7986 23.9934 27.3242L4.85813 46.6247C3.35015 48.149 3.24368 50.4779 4.62388 51.8392L4.99389 52.1997C6.3741 53.553 8.71526 53.4218 10.2219 51.8962L29.3611 32.5957C30.8678 31.0714 30.9716 28.7425 29.5954 27.3812H29.5927ZM41.8562 21.8711C41.2985 22.4371 40.3895 22.4451 39.8278 21.887L34.8926 17.0331C34.3296 16.4843 34.323 15.5817 34.8806 15.017L34.9432 14.9507C35.5009 14.3927 36.4099 14.3847 36.9716 14.9428L41.9068 19.7888C42.4684 20.3468 42.4764 21.2481 41.9188 21.8141L41.8562 21.8711ZM55.7301 7.9813L45.2235 18.5826C44.6672 19.1406 43.7595 19.1486 43.1938 18.5905L38.6858 14.1634C38.1229 13.6054 38.1162 12.704 38.6739 12.138L49.0634 1.66003C43.1259 -1.30775 35.7085 -0.291098 30.7879 4.66889C26.5821 8.90782 25.299 14.9348 26.9281 20.2713L1.77962 45.6385C-0.61478 48.0575 -0.589492 51.9439 1.83419 54.3298L3.03738 55.5108C5.46372 57.8967 9.37009 57.8635 11.7605 55.4538L36.5683 30.4298C42.1903 32.4804 48.7413 31.2331 53.2186 26.7158C58.2763 21.6166 59.1055 13.9261 55.7301 7.9813ZM57.2514 48.9682L58.9284 42.5647C59.1281 41.8025 58.9032 40.99 58.3388 40.4333L57.9302 40.0317L52.7341 45.2714C52.3162 45.6982 51.6334 45.6982 51.2102 45.2873L49.2084 43.311C48.7825 42.9014 48.7785 42.2201 49.1964 41.7946L54.3925 36.5549L53.6152 35.7928C53.0496 35.2347 52.231 35.0213 51.4657 35.2347L45.0638 36.9804C44.2985 37.1938 43.7049 37.7929 43.5039 38.5551L41.8283 44.9585C41.7963 45.0818 41.775 45.2038 41.7644 45.327C41.5048 45.4914 41.2573 45.6955 41.031 45.9262L21.5324 65.5951C19.8035 67.3408 19.8221 70.1455 21.5737 71.8674L22.4401 72.7197C24.1917 74.4415 27.0133 74.4256 28.7422 72.6786L48.2408 53.0083C48.4418 52.8121 48.6148 52.5907 48.7679 52.3694C48.9436 52.3614 49.1193 52.3362 49.2923 52.2872L55.6929 50.5402C56.4595 50.3268 57.0531 49.729 57.2528 48.9655L57.2514 48.9682Z" fill="white"/>
</svg>
