<svg width="84" height="75" viewBox="0 0 84 75" fill="none" xmlns="http://www.w3.org/2000/svg">
<path d="M36.2355 12.0049V5.07623C36.2355 4.50729 35.7193 4.05997 35.1612 4.15727C16.413 7.39932 3.07447 26.434 9.38964 47.0742C10.7748 51.6014 13.8277 56.1909 17.6711 59.9924L27.3419 58.6666C20.1037 54.1867 15.2805 46.1755 15.2805 37.0359C15.2805 24.5204 24.3255 14.1159 36.2369 12.0063L36.2355 12.0049ZM0 59.0883L11.5006 58.0801L8.495 62.0655V68.0198L0.160819 68.7982L4.64887 63.4926L0 59.0896V59.0883ZM74.0117 59.5991L83.477 58.6518L78.6538 63.7926L83.477 68.5279L70.9737 69.8794L74.0117 65.5521V59.6005V59.5991ZM9.65992 62.956L72.1305 54.3921L72.8008 65.6683L10.341 74.4552L9.66128 62.956H9.65992ZM48.5118 47.9824C49.1605 47.9824 49.6916 48.5135 49.6916 49.1621C49.6916 49.8108 49.1591 50.3406 48.5118 50.3406C48.0158 50.3406 47.532 50.2703 47.0239 50.1298C46.6239 50.023 46.1982 49.9879 45.7968 50.0338C44.9116 50.1054 44.0859 50.4946 43.4832 51.1447C42.4088 52.3123 40.9574 52.9488 39.4005 52.9488C36.3207 52.9488 33.8178 50.4473 33.8178 47.3675C33.8178 47.131 33.8422 46.8593 33.9016 46.5174C34.0422 45.5741 33.8178 44.6403 33.2516 43.874C32.7097 43.1186 31.8583 42.6105 30.938 42.4699C28.8608 42.1523 27.3027 40.3441 27.3027 38.2549C27.3027 36.8859 27.9284 35.9304 28.4487 35.3642C29.1433 34.6074 29.4744 33.5938 29.3676 32.5803C29.2501 31.5532 28.696 30.6315 27.8567 30.0531C27.3121 29.6774 27.1837 28.9436 27.5621 28.4138C27.7851 28.0841 28.1514 27.8935 28.5284 27.8935C28.7635 27.8935 28.9892 27.9652 29.2028 28.1057C30.6055 29.0868 31.515 30.6207 31.7042 32.3194C31.8921 34.0195 31.338 35.7074 30.1812 36.971C29.8379 37.3359 29.6609 37.7724 29.6609 38.2562C29.6609 39.19 30.3569 39.9914 31.2893 40.1347C32.8246 40.3698 34.2408 41.232 35.1612 42.4834C36.0923 43.7578 36.4707 45.3147 36.2234 46.885C36.2004 47.0742 36.1761 47.2391 36.1761 47.3702C36.1761 49.1405 37.6153 50.5919 39.3992 50.5919C40.2952 50.5919 41.1331 50.2149 41.748 49.5419C43.2223 47.9499 45.5495 47.2877 47.6496 47.854C47.955 47.9499 48.2402 47.9837 48.5118 47.9837V47.9824ZM39.3992 56.4909C34.3598 56.4909 30.2771 52.4082 30.2771 47.3688C30.2771 46.8958 30.6542 46.3296 30.7245 45.8687C26.9716 45.2917 23.7606 42.1632 23.7606 38.2562C23.7606 36.2156 24.7161 34.279 26.0026 32.887C23.962 31.4721 22.4619 29.2031 22.4619 26.5367C22.4619 22.2176 25.9675 18.7242 30.2771 18.7242C32.6475 18.7242 35.1976 19.4094 36.6247 21.0851C37.9005 20.1878 39.0221 20.0229 40.6966 20.0229C44.2738 20.0229 47.509 22.5244 48.428 25.8056C49.347 25.5002 50.1038 25.2272 51.1187 25.2272C56.1473 25.2272 60.2313 29.3125 60.2313 34.3506C60.2313 37.1616 58.6961 39.4725 56.6906 41.1496C57.1149 42.1996 57.623 43.5578 57.623 44.7741C57.623 47.135 56.7271 49.2824 55.2527 50.8987C56.1527 52.188 56.9568 53.4042 57.6001 54.5164L55.0513 54.8665C54.5756 54.0989 54.0323 53.2826 53.435 52.4339C52.0174 53.3434 50.3308 53.8853 48.5131 53.8853C47.6753 53.8853 46.7185 53.4367 46.0684 52.9529C44.4048 54.7584 42.0439 56.4936 39.4005 56.4936L39.3992 56.4909ZM28.3514 32.6262C28.423 33.2992 28.1973 33.9844 27.7378 34.479C26.7351 35.5777 26.1215 36.9926 26.1215 38.2549C26.1215 41.0874 28.6473 43.1646 31.0785 43.5321C31.7042 43.6267 32.2597 43.9686 32.6245 44.4633C33.0016 44.9714 33.157 45.6093 33.0611 46.2228C32.9908 46.6958 32.8381 47.085 32.7083 47.3931C32.684 47.4391 32.661 47.4972 32.6367 47.5445C32.7327 51.1933 35.7287 54.1326 39.4005 54.1326C41.4533 54.1326 43.3778 52.3839 44.3332 51.346C44.7346 50.9095 45.2779 50.6609 45.8319 50.6027C45.9157 50.5906 45.986 50.5906 46.0684 50.5906C46.5658 50.5906 47.0604 50.7446 47.4847 51.0514C47.9212 51.3812 48.3699 51.5244 48.5118 51.5244C49.8092 51.5244 51.0133 51.1474 52.0525 50.5095C50.6605 48.6567 49.078 46.6728 47.3901 44.6781L39.3181 47.0039C39.2005 47.0283 39.0938 47.0512 38.9897 47.0512C38.4829 47.0512 38.0086 46.7107 37.8559 46.1904C37.6788 45.5647 38.0329 44.916 38.6708 44.7376L45.6927 42.7199C44.5251 41.3739 43.3197 40.0536 42.1291 38.767C42.0818 38.767 42.0453 38.79 41.9993 38.79H33.0867C32.4367 38.79 31.9069 38.2589 31.9069 37.6102C31.9069 36.9616 32.438 36.4304 33.0867 36.4304H39.91C37.6072 34.0465 35.3909 31.8991 33.4895 30.222C33.4651 30.1977 33.4408 30.1747 33.4178 30.1518C31.5894 28.5476 30.0541 27.3773 29.0163 26.8597C28.4379 26.5638 28.2 25.8556 28.4973 25.2786C28.7784 24.7001 29.4879 24.4637 30.0785 24.7461C30.8555 25.1353 31.8826 25.8556 33.0881 26.8232V25.8083C33.0881 25.1596 33.6192 24.6285 34.2679 24.6285C34.9165 24.6285 35.4477 25.1596 35.4477 25.8083V28.8314C36.641 29.9058 37.9383 31.1207 39.2843 32.4546L40.1817 26.8002C40.2884 26.1516 40.8898 25.7151 41.5385 25.8218C42.175 25.9286 42.625 26.5313 42.5196 27.1786L41.3371 34.5195C43.1656 36.3967 45.0441 38.4143 46.8617 40.4685L50.9227 32.36C51.2052 31.7816 51.9147 31.5451 52.5025 31.8289C53.0823 32.1248 53.3188 32.8316 53.0336 33.41L48.5375 42.4037C50.4497 44.6227 52.2444 46.8418 53.8269 48.9432C54.7229 47.785 55.2662 46.3458 55.2662 44.7768C55.2662 43.9146 54.758 42.6524 54.5094 42.0388C54.1202 41.0807 54.3932 39.9955 55.1824 39.3346C56.4108 38.3089 57.8731 36.6088 57.8731 34.3547C57.8731 30.6261 54.8391 27.5935 51.1214 27.5935C50.5443 27.5935 50.1065 27.7341 49.2456 28.0179L49.1861 28.0408C48.9375 28.1246 48.6902 28.1719 48.4294 28.1719C48.0523 28.1719 47.6753 28.0773 47.3307 27.9003C46.755 27.5949 46.3401 27.0746 46.1644 26.4489C45.5022 24.1353 43.1534 22.3879 40.6979 22.3879C39.2465 22.3879 38.6924 22.5176 37.9829 23.0136C37.5707 23.3095 37.0977 23.4501 36.6274 23.4501C36.1315 23.4501 35.6368 23.2974 35.2233 22.9784C35.0814 22.8825 34.9503 22.7528 34.8341 22.6244C34.0192 21.6811 32.2732 21.0892 30.2798 21.0892C27.2675 21.0892 24.8255 23.5325 24.8255 26.5421C24.8255 28.23 25.7458 29.8355 27.3513 30.945C27.9176 31.3342 28.2838 31.9478 28.3541 32.633L28.3514 32.6262ZM66.5208 10.5265C60.111 4.22349 51.4106 0.244918 41.7709 0.000311231C41.2533 -0.0132029 40.8222 0.415196 40.8222 0.932788V11.6117C47.9537 11.6455 54.3905 14.6132 58.9866 19.3729L66.5181 11.8401C66.8789 11.4806 66.8843 10.8846 66.5208 10.5265ZM69.4439 16.9227C69.1195 16.4552 68.4384 16.4052 68.0371 16.8092L61.957 22.8879L61.8787 22.9649C64.5599 26.9935 66.1235 31.8302 66.1235 37.0318C66.1235 43.6835 63.5679 49.7378 59.3853 54.2691L71.8399 52.5623C74.2901 47.7999 75.6753 42.401 75.6753 36.6751C75.6753 29.3193 73.3441 22.5392 69.4439 16.9227Z" fill="white"/>
<path d="M14.8034 66.1292V67.4347L17.09 67.1401V68.0577L14.8034 68.3523V70.1524L13.6601 70.2997V65.3589L17.3941 64.8778V65.7954L14.8034 66.1292ZM20.5131 69.501C19.9996 69.5672 19.5374 69.5158 19.1266 69.3483C18.7144 69.1807 18.3928 68.9172 18.159 68.559C17.9265 68.2009 17.8103 67.7793 17.8103 67.2955C17.8103 66.8103 17.9265 66.3589 18.159 65.9413C18.3914 65.5238 18.7144 65.1764 19.1266 64.9035C19.5388 64.6291 20.0009 64.4588 20.5131 64.3926C21.0267 64.3264 21.4875 64.3778 21.897 64.5467C22.3065 64.7156 22.6281 64.9778 22.8632 65.3359C23.0984 65.694 23.216 66.1143 23.216 66.5995C23.216 67.0833 23.0984 67.536 22.8632 67.9536C22.6281 68.3725 22.3051 68.7185 21.897 68.9915C21.4875 69.2658 21.0267 69.4348 20.5131 69.501ZM20.5131 68.5266C20.805 68.4888 21.0686 68.3874 21.3037 68.2239C21.5389 68.059 21.724 67.8482 21.8578 67.5914C21.9916 67.3347 22.0591 67.0522 22.0591 66.7468C22.0591 66.4414 21.9916 66.1765 21.8578 65.9535C21.724 65.7305 21.5389 65.567 21.3037 65.4643C21.0686 65.3602 20.805 65.3278 20.5131 65.3643C20.2212 65.4021 19.9577 65.5021 19.7225 65.667C19.4874 65.8319 19.3023 66.0427 19.1685 66.2995C19.0347 66.5562 18.9671 66.8387 18.9671 67.1441C18.9671 67.4495 19.0347 67.7144 19.1685 67.9374C19.3023 68.1604 19.4874 68.3239 19.7225 68.4266C19.9577 68.5307 20.2212 68.5631 20.5131 68.5266ZM26.4702 68.7334C25.958 68.7996 25.4958 68.7482 25.0836 68.5807C24.6714 68.4131 24.3498 68.1496 24.116 67.7914C23.8836 67.4333 23.7673 67.0117 23.7673 66.5279C23.7673 66.0427 23.8836 65.5913 24.116 65.1737C24.3484 64.7562 24.6714 64.4088 25.0836 64.1359C25.4958 63.8615 25.958 63.6912 26.4702 63.625C26.9837 63.5588 27.4445 63.6102 27.854 63.7791C28.2635 63.948 28.5851 64.2102 28.8203 64.5683C29.0554 64.9264 29.173 65.3481 29.173 65.8319C29.173 66.3157 29.0554 66.7684 28.8203 67.186C28.5851 67.6049 28.2635 67.9509 27.854 68.2239C27.4445 68.4982 26.9837 68.6672 26.4702 68.7334ZM26.4702 67.759C26.7621 67.7212 27.0256 67.6198 27.2607 67.4563C27.4959 67.2914 27.681 67.0806 27.8148 66.8238C27.9486 66.567 28.0162 66.2846 28.0162 65.9792C28.0162 65.6738 27.9486 65.4089 27.8148 65.1859C27.681 64.9629 27.4959 64.7994 27.2607 64.6967C27.0256 64.5926 26.7621 64.5602 26.4702 64.598C26.1783 64.6359 25.9147 64.7372 25.6796 64.9008C25.4444 65.0656 25.2593 65.2764 25.1255 65.5332C24.9917 65.79 24.9242 66.0724 24.9242 66.3779C24.9242 66.6833 24.9917 66.9481 25.1255 67.1711C25.2593 67.3941 25.4444 67.5563 25.6796 67.6603C25.9147 67.7644 26.1783 67.7968 26.4702 67.7604V67.759ZM30.0339 63.2493L32.2786 62.9601C32.8151 62.8912 33.2894 62.9317 33.7002 63.0845C34.1124 63.2358 34.4314 63.4831 34.6598 63.825C34.8881 64.1669 35.0017 64.5859 35.0017 65.0791C35.0017 65.5738 34.8881 66.0211 34.6598 66.4211C34.4314 66.8225 34.1111 67.1509 33.7002 67.409C33.2881 67.6671 32.8151 67.8306 32.2786 67.8995L30.0339 68.1888V63.248V63.2493ZM32.2218 66.9698C32.7164 66.9063 33.1097 66.7184 33.4043 66.4049C33.6975 66.0914 33.8449 65.6994 33.8449 65.2291C33.8449 64.7589 33.6975 64.4048 33.4043 64.1669C33.1097 63.9291 32.7164 63.8426 32.2218 63.9061L31.1772 64.0399V67.1036L32.2218 66.9684V66.9698ZM43.2034 67.0238C43.0439 67.2414 42.8493 67.4171 42.6209 67.5509C42.3926 67.6833 42.1425 67.7685 41.8696 67.8036C41.5033 67.8509 41.1709 67.8144 40.8749 67.6955C40.579 67.5766 40.2398 67.3414 39.8587 66.99C39.4113 66.9914 39.0127 66.8995 38.6626 66.713C38.3126 66.5279 38.0396 66.2657 37.8437 65.9265C37.6477 65.5873 37.5504 65.1967 37.5504 64.7535C37.5504 64.2683 37.6667 63.8169 37.9004 63.3993C38.1329 62.9817 38.4559 62.6358 38.8681 62.3614C39.2789 62.0871 39.7424 61.9168 40.2546 61.8506C40.7682 61.7844 41.229 61.8357 41.6385 62.0047C42.0479 62.1736 42.3696 62.4358 42.6047 62.7939C42.8399 63.152 42.9574 63.5723 42.9574 64.0575C42.9574 64.6318 42.7966 65.1562 42.4736 65.6305C42.152 66.1049 41.725 66.4603 41.1925 66.6995C41.3101 66.8063 41.4249 66.8806 41.5344 66.9198C41.6452 66.9603 41.7641 66.9711 41.8912 66.9549C42.1966 66.9157 42.4655 66.759 42.6953 66.4846L43.2034 67.0265V67.0238ZM38.7072 64.6034C38.7072 64.9089 38.7748 65.1737 38.9086 65.3967C39.0424 65.6197 39.2275 65.7819 39.4627 65.8859C39.6978 65.99 39.9614 66.0224 40.2533 65.9859C40.5452 65.9481 40.8087 65.8467 41.0438 65.6832C41.279 65.5184 41.4641 65.3075 41.5979 65.0508C41.7317 64.794 41.7993 64.5115 41.7993 64.2061C41.7993 63.9007 41.7317 63.6358 41.5979 63.4128C41.4641 63.1899 41.279 63.0263 41.0438 62.9236C40.8087 62.8196 40.5452 62.7871 40.2533 62.8236C39.9614 62.8615 39.6978 62.9628 39.4627 63.1263C39.2275 63.2912 39.0424 63.502 38.9086 63.7588C38.7748 64.0156 38.7072 64.298 38.7072 64.6034ZM46.0117 66.217C45.3062 66.3076 44.7562 66.1832 44.3643 65.844C43.971 65.5035 43.7751 64.971 43.7751 64.2467V61.4803L44.9184 61.333V64.0575C44.9184 64.9413 45.2859 65.3373 46.0198 65.2427C46.3779 65.1967 46.6509 65.0548 46.8387 64.8156C47.0266 64.5778 47.1212 64.2305 47.1212 63.7737V61.0492L48.2509 60.9033V63.6696C48.2509 64.394 48.055 64.9764 47.6617 65.4184C47.2685 65.8589 46.7198 66.1251 46.0144 66.2157L46.0117 66.217ZM52.5255 64.2345L50.2321 64.5305L49.7943 65.6454L48.6226 65.7967L50.824 60.5735L51.9538 60.4276L54.1634 65.0832L52.9633 65.2373L52.5255 64.2345ZM52.166 63.4128L51.3822 61.6222L50.5984 63.6142L52.1646 63.4128H52.166ZM54.6783 60.0762L55.8216 59.9289V63.9372L58.2987 63.6183V64.5494L54.6783 65.0156V60.0748V60.0762ZM58.9406 59.5275L60.0839 59.3802V64.321L58.9406 64.4683V59.5275ZM62.2786 60.0289L60.6975 60.233V59.3018L65.0031 58.7478V59.6789L63.4219 59.8829V63.8913L62.2786 64.0386V60.0302V60.0289ZM67.8965 61.5641V63.3142L66.7532 63.4615V61.6965L64.8409 58.7667L66.0545 58.6099L67.3748 60.6343L68.6952 58.2694L69.8168 58.1248L67.8978 61.5614L67.8965 61.5641Z" fill="#E6B185"/>
</svg>
