<svg width="75" height="84" viewBox="0 0 75 84" fill="none" xmlns="http://www.w3.org/2000/svg">
<path d="M71.4024 17.1655C58.165 15.5226 45.4236 5.6075 40.1006 0.974955C38.6094 -0.324985 36.3892 -0.324985 34.8965 0.974955C29.5765 5.6075 16.8321 15.5241 3.59467 17.1655C1.49015 17.4258 -0.0837344 19.2087 0.00345298 21.3302C1.63596 61.6133 28.0958 79.2888 35.5549 83.4866C36.771 84.1712 38.2291 84.1712 39.4452 83.4866C46.9043 79.2888 73.3642 61.6133 74.9967 21.3302C75.0823 19.2087 73.51 17.4258 71.4039 17.1655H71.4024ZM37.4986 31.343C38.8334 31.343 39.9248 32.4353 39.9248 33.7714V39.5715H45.7197C47.0546 39.5715 48.1459 40.6638 48.1459 41.9998C48.1459 43.3359 47.0546 44.4282 45.7197 44.4282H39.9248V50.2283C39.9248 51.5643 38.8334 52.6566 37.4986 52.6566C36.1637 52.6566 35.0723 51.5643 35.0723 50.2283V44.4282H29.2774C27.9425 44.4282 26.8512 43.3359 26.8512 41.9998C26.8512 40.6638 27.9425 39.5715 29.2774 39.5715H35.0723V33.7714C35.0723 32.4353 36.1637 31.343 37.4986 31.343ZM37.4986 61.9804C26.4754 61.9804 17.5356 53.0343 17.5356 41.9998C17.5356 30.9639 26.4739 22.0208 37.4986 22.0208C48.5217 22.0208 57.46 30.9654 57.46 41.9998C57.46 53.0328 48.5217 61.9804 37.4986 61.9804Z" fill="white"/>
</svg>
