<svg width="67" height="75" viewBox="0 0 67 75" fill="none" xmlns="http://www.w3.org/2000/svg">
<path d="M63.7862 15.3264C51.9607 13.8594 40.5784 5.00669 35.8232 0.870496C34.4911 -0.290165 32.5077 -0.290165 31.1742 0.870496C26.4217 5.00669 15.0367 13.8608 3.21124 15.3264C1.3312 15.5588 -0.0748028 17.1507 0.00308466 19.0448C1.46146 55.0118 25.099 70.7936 31.7624 74.5416C32.8488 75.1528 34.1513 75.1528 35.2377 74.5416C41.9011 70.7936 65.5386 55.0118 66.997 19.0448C67.0736 17.1507 65.6689 15.5588 63.7875 15.3264H63.7862ZM26.5587 40.2483C26.3962 40.6151 26.4687 41.053 26.752 41.3593C27.5161 42.1452 28.4656 42.88 29.6164 43.3072C29.4539 43.6739 29.5265 44.1118 29.8098 44.4181C31.0036 45.6513 32.6648 46.7529 34.7959 46.7529C36.2033 46.7529 37.8027 46.2733 39.6182 45.0388L44.1035 49.5269C44.2969 49.7298 44.5628 49.8319 44.8166 49.8319C45.0824 49.8319 45.347 49.7298 45.5417 49.5269C45.9392 49.1293 45.9392 48.4858 45.5417 48.0882L41.0565 43.6014C44.1545 39.0326 42.4732 35.7696 40.4347 33.8016C40.1285 33.5047 39.6908 33.4335 39.3241 33.596C38.8958 32.4542 38.1612 31.4964 37.377 30.7401C37.0708 30.4459 36.633 30.3733 36.265 30.5372C35.8367 29.394 35.1021 28.4362 34.3192 27.6812C34.013 27.3857 33.5753 27.3145 33.206 27.477C32.7776 26.3352 32.0444 25.3774 31.2601 24.6238C30.8626 24.2355 30.2194 24.2355 29.8326 24.6332C29.0282 25.4378 28.4669 26.3164 28.1003 27.2326C27.0488 26.0396 25.2856 25.3586 22.3917 25.3586C21.8304 25.3586 21.3711 25.8059 21.3711 26.3768C21.3711 29.2637 22.0546 31.0275 23.2579 32.0888C22.4011 32.4246 21.5148 32.9553 20.658 33.811C20.2605 34.1992 20.2605 34.8413 20.6473 35.239C21.402 36.0248 22.3501 36.7583 23.5009 37.1855C23.3384 37.5536 23.4096 37.9915 23.697 38.2978C24.4611 39.0837 25.4092 39.8158 26.56 40.2457L26.5587 40.2483ZM28.8416 34.4853C26.5681 35.9026 24.6813 35.9241 22.9181 34.5579C24.1522 33.7008 25.3863 33.5678 26.2619 33.6404C27.1697 33.7102 28.0667 34.0071 28.8402 34.4867L28.8416 34.4853ZM27.4651 31.4467C24.7847 31.3029 23.6433 30.4674 23.4378 27.4273C26.4768 27.6208 27.3228 28.764 27.4651 31.4467ZM30.5027 32.8223C29.5452 31.2532 29.1558 28.9373 30.5739 26.8981C31.9396 28.6619 31.9101 30.548 30.5027 32.8223ZM35.0806 40.5116C32.7346 42.0122 30.7874 42.0511 28.9853 40.6245C30.3094 40.5627 31.8174 40.0737 33.5014 38.9211L35.082 40.5116H35.0806ZM30.4423 35.8717L32.0215 37.4515C29.6768 38.9507 27.7297 38.991 25.9262 37.5643C27.2503 37.5025 28.7597 37.0135 30.4423 35.8717ZM37.996 40.5412C39.1375 38.8607 39.6263 37.3494 39.6881 36.0248C41.1263 37.829 41.086 39.7782 39.586 42.1223L37.996 40.5412ZM34.9356 37.4837C36.0784 35.8005 36.5672 34.2906 36.629 32.9647C38.0659 34.7701 38.0269 36.718 36.5269 39.0635L34.9356 37.4837ZM36.5591 41.9799L38.1384 43.5705C35.7924 45.0697 33.8465 45.1113 32.0417 43.6833C33.3671 43.6108 34.8765 43.1339 36.5591 41.9799ZM31.8778 34.4235C33.022 32.7403 33.5108 31.2304 33.582 29.9045C35.0081 31.71 34.9678 33.6578 33.4692 36.0033L31.8778 34.4235ZM33.4974 55.3369C23.65 55.3369 15.6638 47.3493 15.6638 37.4972C15.6638 27.6436 23.6486 19.6587 33.4974 19.6587C43.3448 19.6587 51.3296 27.645 51.3296 37.4972C51.3296 47.348 43.3448 55.3369 33.4974 55.3369Z" fill="white"/>
</svg>
