<svg width="78" height="61" viewBox="0 0 78 61" fill="none" xmlns="http://www.w3.org/2000/svg">
<path d="M75.7627 32.6356C75.3774 32.8733 74.9845 33.076 74.5467 33.1961C74.0637 33.3262 73.9436 34.0893 74.339 34.4547C74.9995 35.0752 75.3724 35.8584 75.53 36.7316C75.8303 38.3305 75.2122 39.6066 74.0362 40.6525C73.5533 41.0804 73.0078 41.4181 72.4148 41.6709C71.7943 41.9361 71.6667 42.7693 72.1771 43.2072C73.3481 44.2055 73.6859 45.6118 73.0729 47.113C72.575 48.3291 71.7793 49.3074 70.6083 49.9455C70.4531 50.0306 70.283 50.0981 70.1178 50.1507C69.7025 50.2858 69.5373 50.4759 69.5023 50.9063C69.4798 51.2291 69.5724 51.4918 69.8301 51.7145C70.4681 52.2675 70.9235 52.9381 71.0336 53.7963C71.1187 54.4519 70.9861 55.0724 70.7058 55.6679C70.2805 56.5687 69.6424 57.2943 68.8943 57.9299C68.544 58.2276 67.6282 58.6905 66.9226 58.9958C66.5348 59.1634 65.3462 59.4111 64.9959 59.4862C47.691 62.9992 35.5381 58.4478 33.9918 57.8873C33.664 57.7697 32.5855 57.0716 32.2953 57.0716C32.2553 57.0716 32.0351 57.0191 31.9325 56.974V58.5754C31.9325 59.9141 30.8541 61 29.5254 61H20.6428C19.3141 61 18.2357 59.9141 18.2357 58.5754V54.014C18.546 53.8839 18.8487 53.7413 19.144 53.5886L20.0723 54.5119C20.7704 55.205 21.8988 55.205 22.5969 54.5094L25.0891 52.0198C25.7847 51.3242 25.7847 50.2007 25.0941 49.5001L24.1733 48.5643C24.5111 47.9087 24.7863 47.2131 25.004 46.5075H26.3026C27.281 46.5075 28.0967 45.7594 28.0967 44.766V41.243C28.0967 40.2546 27.286 39.4715 26.3026 39.4715H25.029C24.8139 38.7509 24.5286 38.0928 24.1658 37.4347L25.0766 36.5214C25.7722 35.8233 25.7722 34.6924 25.0766 33.9968L22.5844 31.5046C21.8888 30.809 20.7629 30.809 20.0648 31.5021L19.134 32.4229C18.8412 32.2728 18.5385 32.1327 18.2332 32.005V28.9274C18.2332 27.5912 19.3116 26.5053 20.6403 26.5053H29.5229C30.8516 26.5053 31.93 27.5912 31.93 28.9274V30.9867L33.8166 29.663C33.8817 29.618 33.9342 29.5679 33.9893 29.5104C34.0068 29.4904 34.0243 29.4654 34.0443 29.4428C37.4798 25.1216 39.6867 20.5302 42.2514 15.6435C43.9628 12.3757 44.3932 5.40215 44.3757 2.77489C44.3707 1.72148 45.1639 0 47.2231 0C47.7436 0.0100086 48.827 0.0400345 49.4801 0.280241C50.2558 0.565487 50.9188 1.57636 51.5819 2.87748C52.4852 4.6515 53.0557 6.56815 53.5936 8.48981C53.7938 9.21043 53.9639 9.94356 54.0715 10.6817C54.1516 11.2222 54.1516 11.7726 54.1166 12.3156C54.0715 12.9411 54.0365 13.5642 53.9765 14.1872C53.8539 15.4133 53.6812 16.6293 53.471 17.8404C53.2483 19.154 52.9981 20.4651 52.7304 21.7687L52.7204 21.8113C52.7204 21.9064 52.7054 22.0139 52.6753 22.1341C52.2475 23.813 53.9589 24.7938 54.9673 25.2217C55.235 25.3318 56.341 25.4669 56.6438 25.4669C62.176 25.4644 71.454 25.4369 72.575 25.4394C73.3231 25.4419 74.0763 25.4244 74.8194 25.4619C76.0505 25.527 77.3991 26.3126 77.797 27.9591C78.2248 29.7156 77.3891 31.6222 75.7627 32.6306V32.6356ZM26.2976 40.4423H24.2709C23.9957 39.1687 23.5453 38.2429 22.9473 37.2821L22.9548 37.2721L24.3885 35.8383C24.7063 35.5206 24.7063 35.0026 24.3885 34.6849L21.8963 32.1927C21.5786 31.8749 21.0606 31.8749 20.7429 32.1927L19.2941 33.6239C18.3007 33.0184 17.1548 32.5855 16.1114 32.3303V30.2961C16.1114 29.8457 15.7786 29.4353 15.3282 29.4353H11.8052C11.3548 29.4353 10.8969 29.8457 10.8969 30.2961V32.3228C9.73838 32.5981 8.75003 33.0484 7.7892 33.6465L7.80422 33.639L6.38299 32.2077C6.06522 31.8899 5.55478 31.8899 5.23451 32.2077L2.74486 34.6999C2.42709 35.0176 2.42709 35.5331 2.74736 35.8534L4.1811 37.2846C3.57558 38.2779 3.14521 39.4039 2.88749 40.4473H0.850732C0.400345 40.4473 0 40.8176 0 41.268V44.791C0 45.2414 0.400345 45.5467 0.850732 45.5467H2.87748C3.15271 46.8203 3.6031 47.7686 4.20112 48.7294L4.19611 48.752L2.76238 50.1932C2.4446 50.511 2.4446 51.0314 2.76238 51.3517L5.25452 53.8438C5.5723 54.1616 6.09024 54.1641 6.40802 53.8438L7.7842 52.4126C8.77755 53.0181 9.73588 53.4485 10.8944 53.7062V55.743C10.8944 56.1934 11.3698 56.5562 11.8202 56.5562H15.3432C15.7936 56.5562 16.1089 56.1934 16.1089 55.743V53.7162C17.1523 53.441 18.3258 52.9906 19.2866 52.3926L19.3066 52.4001L20.7454 53.8313C21.0631 54.1491 21.5836 54.1491 21.9014 53.8313L24.3935 51.3417C24.7113 51.0239 24.7138 50.506 24.3935 50.1882L22.9623 48.7344C23.5678 47.7411 23.9982 46.5901 24.2559 45.5467H26.2901C26.7405 45.5467 27.1133 45.2239 27.1133 44.7735V41.2505C27.1133 40.8001 26.738 40.4473 26.2901 40.4473L26.2976 40.4423ZM11.5324 47.6785C11.4849 47.6585 11.4348 47.6335 11.3873 47.611C11.2397 47.5409 11.0945 47.4608 10.9569 47.3758C10.8869 47.3332 10.8193 47.2907 10.7518 47.2432C10.6842 47.1981 10.6166 47.1506 10.5516 47.1005C10.5191 47.0755 10.4865 47.053 10.454 47.0255C10.2688 46.8803 10.0962 46.7227 9.93355 46.5551C9.77091 46.3849 9.61828 46.2073 9.48066 46.0171C9.42561 45.9395 9.37307 45.862 9.32052 45.7844C9.16789 45.5467 9.03277 45.2965 8.92018 45.0313C8.65745 44.4182 8.51233 43.7426 8.51233 43.0345C8.51233 41.5458 9.15288 40.2071 10.1738 39.2788C10.2638 39.1962 10.3564 39.1187 10.4515 39.0411C10.484 39.0161 10.5166 38.9911 10.5491 38.966C10.6141 38.9185 10.6792 38.871 10.7493 38.8234C10.9519 38.6858 11.1646 38.5632 11.3848 38.4581C11.4599 38.4231 11.5349 38.388 11.61 38.358C12.2155 38.1003 12.8836 37.9577 13.5842 37.9577C14.4149 37.9577 15.2006 38.1578 15.8937 38.5131C15.9662 38.5507 16.0388 38.5907 16.1089 38.6307C16.214 38.6908 16.319 38.7559 16.4216 38.8234C16.4892 38.871 16.5542 38.916 16.6193 38.966C16.6518 38.9911 16.6844 39.0161 16.7169 39.0411C16.7819 39.0911 16.8445 39.1437 16.9045 39.1962C16.9971 39.2763 17.0847 39.3589 17.1723 39.4464C17.2298 39.504 17.2849 39.5615 17.3399 39.6216C17.4775 39.7717 17.6052 39.9294 17.7228 40.0945C17.7703 40.1596 17.8153 40.2296 17.8579 40.2972C17.9029 40.3647 17.9454 40.4348 17.9855 40.5074C18.0455 40.6125 18.1031 40.7225 18.1581 40.8326C18.4784 41.4982 18.6586 42.2439 18.6586 43.032C18.6586 43.4699 18.6035 43.8953 18.4984 44.3006C18.4784 44.3832 18.4559 44.4608 18.4309 44.5408C18.3933 44.6609 18.3533 44.776 18.3058 44.8911C18.2757 44.9662 18.2432 45.0438 18.2107 45.1188C18.1882 45.1689 18.1656 45.2164 18.1406 45.2665C18.0931 45.364 18.0405 45.4616 17.988 45.5542C17.9479 45.6243 17.9054 45.6943 17.8604 45.7644C17.8253 45.8194 17.7903 45.872 17.7528 45.9245C17.7203 45.9696 17.6877 46.0171 17.6527 46.0646C17.6277 46.0972 17.6026 46.1297 17.5776 46.1622C17.5276 46.2248 17.475 46.2873 17.4225 46.3499C17.395 46.3824 17.3699 46.4099 17.3424 46.4425C17.2874 46.5025 17.2323 46.5601 17.1748 46.6176C17.1448 46.6451 17.1172 46.6752 17.0872 46.7027C16.9696 46.8153 16.847 46.9229 16.7194 47.0205C16.6869 47.0455 16.6543 47.0705 16.6218 47.0955C16.5567 47.1431 16.4892 47.1906 16.4241 47.2382C16.3566 47.2857 16.2865 47.3282 16.219 47.3708C16.1839 47.3933 16.1489 47.4133 16.1139 47.4333C16.0438 47.4734 15.9712 47.5134 15.8987 47.5509C15.2056 47.9062 14.4199 48.1064 13.5892 48.1064C12.9186 48.1064 12.2806 47.9763 11.6951 47.7411C11.6425 47.7186 11.5875 47.696 11.5349 47.6735L11.5324 47.6785Z" fill="white"/>
<path d="M9.7851 15.5743V17.5156H2.45862C2.53796 16.7817 2.77598 16.0875 3.17268 15.433C3.56937 14.7735 4.35285 13.9007 5.5231 12.8148C6.46525 11.9371 7.04294 11.342 7.25616 11.0297C7.54377 10.5982 7.68757 10.1718 7.68757 9.75031C7.68757 9.28419 7.56112 8.92717 7.30823 8.67923C7.06029 8.42634 6.71566 8.29989 6.27434 8.29989C5.83798 8.29989 5.49087 8.4313 5.23301 8.69411C4.97516 8.95692 4.8264 9.39328 4.78673 10.0032L2.70408 9.79494C2.82805 8.64452 3.21731 7.8189 3.87185 7.31807C4.5264 6.81724 5.34459 6.56683 6.32641 6.56683C7.40244 6.56683 8.2479 6.85691 8.86278 7.43708C9.47766 8.01725 9.7851 8.73874 9.7851 9.60155C9.7851 10.0925 9.69584 10.5611 9.51733 11.0073C9.34377 11.4487 9.06609 11.9123 8.68427 12.3983C8.43137 12.7206 7.97517 13.1842 7.31567 13.7892C6.65616 14.3941 6.23715 14.7958 6.05864 14.9941C5.88508 15.1925 5.74376 15.3859 5.63467 15.5743H9.7851ZM11.2355 14.7115L13.3182 14.4958C13.3777 14.9669 13.5537 15.3412 13.8463 15.6189C14.1388 15.8917 14.476 16.028 14.8578 16.028C15.2942 16.028 15.6636 15.852 15.9661 15.4999C16.2686 15.1429 16.4198 14.6074 16.4198 13.8933C16.4198 13.2239 16.2686 12.723 15.9661 12.3908C15.6686 12.0536 15.2793 11.885 14.7983 11.885C14.1983 11.885 13.6603 12.1503 13.1843 12.6809L11.4884 12.4354L12.5595 6.76022H18.086V8.71642H14.1438L13.8165 10.5685C14.2826 10.3354 14.7587 10.2189 15.2446 10.2189C16.1719 10.2189 16.9578 10.5561 17.6025 11.2305C18.2471 11.9049 18.5694 12.7801 18.5694 13.8561C18.5694 14.7536 18.3091 15.5545 17.7884 16.2586C17.0793 17.2206 16.095 17.7016 14.8355 17.7016C13.8289 17.7016 13.0082 17.4313 12.3735 16.8908C11.7388 16.3503 11.3595 15.6239 11.2355 14.7115ZM23.7537 9.61642V11.2825H22.3256V14.466C22.3256 15.1107 22.338 15.4875 22.3628 15.5966C22.3926 15.7007 22.4546 15.7875 22.5488 15.8569C22.648 15.9264 22.767 15.9611 22.9058 15.9611C23.0992 15.9611 23.3794 15.8941 23.7463 15.7602L23.9248 17.3817C23.4389 17.59 22.8884 17.6941 22.2736 17.6941C21.8967 17.6941 21.557 17.6322 21.2546 17.5082C20.9521 17.3793 20.7289 17.2156 20.5851 17.0173C20.4463 16.814 20.3496 16.5412 20.2951 16.1991C20.2504 15.9561 20.2281 15.4652 20.2281 14.7264V11.2825H19.2686V9.61642H20.2281V8.047L22.3256 6.82716V9.61642H23.7537ZM27.2868 6.61146V10.6206C27.9612 9.83213 28.767 9.43791 29.7042 9.43791C30.1852 9.43791 30.6191 9.52717 31.0058 9.70568C31.3926 9.88419 31.6827 10.1123 31.8761 10.39C32.0744 10.6677 32.2083 10.9751 32.2777 11.3123C32.3521 11.6495 32.3893 12.1726 32.3893 12.8817V17.5156H30.2992V13.3429C30.2992 12.5148 30.2595 11.9892 30.1802 11.766C30.1009 11.5429 29.9595 11.3668 29.7562 11.2379C29.5579 11.104 29.3075 11.0371 29.005 11.0371C28.6579 11.0371 28.348 11.1214 28.0752 11.29C27.8025 11.4586 27.6017 11.714 27.4728 12.0561C27.3488 12.3933 27.2868 12.8941 27.2868 13.5586V17.5156H25.1967V6.61146H27.2868Z" fill="white"/>
</svg>
