<svg width="83" height="65" viewBox="0 0 83 65" fill="none" xmlns="http://www.w3.org/2000/svg">
<path d="M80.7174 34.7758C80.3086 35.0286 79.8893 35.2457 79.421 35.3736C78.908 35.5133 78.7787 36.3252 79.198 36.7133C79.9027 37.3736 80.2981 38.2092 80.4661 39.1401C80.7858 40.8427 80.1272 42.2032 78.8739 43.3185C78.3609 43.7735 77.7796 44.1333 77.1463 44.4054C76.4847 44.688 76.3494 45.5772 76.892 46.0426C78.1394 47.1058 78.4977 48.6061 77.8465 50.2046C77.3173 51.5013 76.4668 52.5436 75.2195 53.2232C75.0545 53.3139 74.8746 53.3853 74.6962 53.4432C74.2546 53.586 74.0792 53.7882 74.0405 54.2492C74.0167 54.5927 74.1148 54.8722 74.3899 55.1116C75.0693 55.7005 75.5555 56.4157 75.6729 57.3287C75.7636 58.0261 75.6239 58.6893 75.325 59.3227C74.8731 60.2818 74.1907 61.0566 73.3953 61.7331C73.0221 62.0513 72.0453 62.542 71.2945 62.8692C70.8797 63.0476 69.6145 63.3123 69.2413 63.3911C50.8044 67.1368 37.8551 62.2863 36.2078 61.687C35.8584 61.5621 34.7106 60.8186 34.3999 60.8171C34.3583 60.8171 34.1234 60.7606 34.0133 60.7116V62.4171C34.0133 63.8431 32.8641 65 31.4473 65H21.9827C20.5659 65 19.4167 63.8431 19.4167 62.4171V57.5577C19.7467 57.4194 20.0708 57.2677 20.3845 57.1042L21.3747 58.0886C22.118 58.8276 23.3223 58.8276 24.0642 58.0871L26.7209 55.4328C27.4628 54.6923 27.4613 53.4938 26.7269 52.7473L25.7442 51.7496C26.1025 51.0522 26.3983 50.3087 26.6288 49.5593H28.0129C29.0551 49.5593 29.9234 48.7623 29.9234 47.7035V43.9489C29.9234 42.8962 29.0581 42.062 28.0129 42.062H26.6555C26.4266 41.2932 26.1233 40.5928 25.7367 39.891L26.7076 38.9185C27.4494 38.1765 27.4494 36.9706 26.7076 36.2286L24.0523 33.5743C23.3104 32.8323 22.1121 32.8338 21.3672 33.5699L20.3756 34.5498C20.0634 34.3892 19.7423 34.2405 19.4152 34.1052V30.8249C19.4152 29.4019 20.5644 28.245 21.9813 28.245H31.4458C32.8626 28.245 34.0119 29.4019 34.0119 30.8249V33.0197L36.0204 31.6086C36.0903 31.5595 36.1468 31.5074 36.2048 31.4465C36.2241 31.4242 36.2434 31.3989 36.2643 31.3751C39.9246 26.7714 42.2781 21.8763 45.0077 16.669C46.8304 13.1865 47.2883 5.75607 47.272 2.9561C47.2675 1.83492 48.1105 0 50.3064 0C50.8609 0.0104088 52.0146 0.0446083 52.7119 0.298881C53.5385 0.60371 54.2447 1.68176 54.9524 3.06614C55.9143 4.95608 56.5239 6.99918 57.0963 9.04674C57.3104 9.8155 57.4917 10.5962 57.6062 11.3828C57.691 11.9597 57.691 12.5456 57.6523 13.124C57.6062 13.7902 57.5676 14.4534 57.5036 15.118C57.3728 16.4236 57.1885 17.7202 56.9669 19.0124C56.7291 20.4131 56.4629 21.8079 56.1775 23.1997L56.1656 23.2458C56.1656 23.3469 56.1507 23.4614 56.118 23.5908C55.6631 25.3781 57.4858 26.4265 58.5607 26.8815C58.8447 26.9989 60.0251 27.1417 60.3477 27.1417C66.2426 27.1387 76.1279 27.109 77.3202 27.112C78.1186 27.1149 78.9185 27.0956 79.7109 27.1357C81.0237 27.2042 82.4598 28.0428 82.8821 29.7959C83.337 31.6695 82.4465 33.7007 80.7144 34.7758H80.7174ZM28.0129 43.0939H25.8542C25.5613 41.7348 25.0796 40.7519 24.4433 39.7259L24.4507 39.7155L25.9776 38.1869C26.3166 37.8479 26.3166 37.2962 25.9776 36.9572L23.3238 34.303C22.9833 33.9639 22.4347 33.9639 22.0943 34.303L20.551 35.8286C19.4925 35.1832 18.2734 34.7238 17.1613 34.4487V32.2807C17.1613 31.8004 16.806 31.3617 16.3272 31.3617H12.5733C12.093 31.3617 11.6069 31.8004 11.6069 32.2807V34.4398C10.3729 34.7327 9.32029 35.2145 8.29594 35.8509L8.31378 35.8435L6.80029 34.3178C6.46132 33.9788 5.91717 33.9788 5.5782 34.3178L2.92588 36.9736C2.58691 37.3126 2.58839 37.8628 2.92737 38.2018L4.45424 39.7259C3.809 40.7847 3.35108 41.9846 3.07604 43.0954H0.906903C0.426691 43.0954 0 43.491 0 43.9712V47.7258C0 48.2061 0.426691 48.5303 0.906903 48.5303H3.06563C3.35852 49.8879 3.83873 50.899 4.47505 51.9221L4.4691 51.9459L2.94223 53.4819C2.60326 53.8209 2.60326 54.3756 2.94223 54.7161L5.59604 57.3718C5.93502 57.7109 6.4851 57.7124 6.82556 57.3733L8.29296 55.8477C9.35151 56.493 10.3714 56.9525 11.6069 57.2276V59.3971C11.6069 59.8759 12.1139 60.264 12.5941 60.264H16.3495C16.8298 60.264 17.1643 59.8759 17.1643 59.3971V57.238C18.2763 56.9436 19.5267 56.4633 20.551 55.8269L20.5718 55.8343L22.1047 57.3599C22.4436 57.699 22.9967 57.699 23.3357 57.3599L25.9925 54.7057C26.3314 54.3667 26.3329 53.815 25.9925 53.476L24.4671 51.928C25.1108 50.8678 25.5717 49.644 25.8468 48.5318H28.0159C28.4961 48.5318 28.8945 48.1883 28.8945 47.708V43.9534C28.8945 43.4746 28.4961 43.0984 28.0159 43.0984L28.0129 43.0939ZM12.2804 50.8054C12.2283 50.7831 12.1763 50.7593 12.1243 50.734C11.9667 50.6582 11.8135 50.5749 11.6649 50.4842C11.5905 50.4396 11.5177 50.3935 11.4463 50.3429C11.375 50.2953 11.3036 50.2433 11.2337 50.1927C11.1995 50.1675 11.1638 50.1407 11.1296 50.1139C10.9334 49.9593 10.7476 49.7927 10.5736 49.6113C10.3997 49.4314 10.2391 49.2396 10.0919 49.0374C10.0324 48.9556 9.97594 48.8738 9.92242 48.789C9.75888 48.5362 9.61615 48.2686 9.49573 47.9875C9.21622 47.3348 9.0616 46.6151 9.0616 45.8612C9.0616 44.2746 9.74401 42.8486 10.8323 41.8583C10.9274 41.7705 11.0271 41.6873 11.1296 41.6055C11.1638 41.5802 11.198 41.5519 11.2337 41.5267C11.3036 41.4746 11.3735 41.4255 11.4463 41.3765C11.6619 41.2308 11.8879 41.0999 12.1243 40.9869C12.2031 40.9482 12.2833 40.9125 12.3636 40.8798C13.0104 40.6062 13.721 40.4531 14.4673 40.4531C15.3534 40.4531 16.1905 40.6672 16.9279 41.0449C17.0052 41.085 17.0825 41.1267 17.1583 41.1713C17.2713 41.2352 17.3828 41.3051 17.4899 41.378C17.5612 41.427 17.6311 41.4776 17.701 41.5281C17.7352 41.5549 17.7694 41.5817 17.8036 41.607C17.8719 41.662 17.9389 41.7155 18.0043 41.772C18.1024 41.8583 18.1975 41.946 18.2897 42.0382C18.3507 42.0991 18.4101 42.1616 18.4681 42.2255C18.6138 42.3846 18.7491 42.5542 18.8755 42.7311C18.926 42.801 18.9751 42.8739 19.0212 42.9467C19.0688 43.0196 19.1134 43.0939 19.1565 43.1698C19.2219 43.2828 19.2829 43.3988 19.3393 43.5177C19.6813 44.227 19.8731 45.0225 19.8731 45.8612C19.8731 46.3281 19.8136 46.7801 19.7021 47.2114C19.6798 47.2976 19.656 47.3824 19.6293 47.4686C19.5891 47.595 19.546 47.7199 19.4969 47.8433C19.4642 47.9251 19.43 48.0069 19.3944 48.0872C19.3706 48.1407 19.3453 48.1913 19.3185 48.2448C19.268 48.3489 19.213 48.4515 19.155 48.5526C19.1119 48.6284 19.0658 48.7028 19.0197 48.7757C18.9825 48.8336 18.9439 48.8901 18.9052 48.9466C18.8695 48.9957 18.8353 49.0463 18.7982 49.0953C18.7714 49.1295 18.7461 49.1637 18.7194 49.1994C18.6659 49.2678 18.6109 49.3347 18.5544 49.4002C18.5261 49.4329 18.4979 49.4656 18.4681 49.4983C18.4101 49.5608 18.3507 49.6247 18.2897 49.6857C18.2585 49.7154 18.2288 49.7466 18.1961 49.7749C18.0712 49.8953 17.9403 50.0084 17.8036 50.1139C17.7694 50.1407 17.7352 50.1675 17.701 50.1927C17.6311 50.2448 17.5612 50.2953 17.4899 50.3429C17.417 50.392 17.3442 50.4396 17.2698 50.4842C17.2327 50.508 17.1955 50.5288 17.1568 50.5511C17.081 50.5942 17.0052 50.6358 16.9264 50.676C16.189 51.0537 15.3519 51.2678 14.4659 51.2678C13.7522 51.2678 13.0713 51.1295 12.4484 50.8782C12.3919 50.8559 12.3339 50.8321 12.2774 50.8054H12.2804Z" fill="white"/>
</svg>
