<svg width="81" height="61" viewBox="0 0 81 61" fill="none" xmlns="http://www.w3.org/2000/svg">
<path d="M46.7525 39.7416H1.67284C1.27966 39.7416 0.964821 39.4232 0.964821 39.0317V0.71134C0.964821 0.321344 1.28111 0 1.67284 0H46.7525C47.1457 0 47.4605 0.319883 47.4605 0.71134V39.0317C47.4605 39.4217 47.1442 39.7416 46.7525 39.7416ZM20.6341 34.4949C21.0665 34.4496 26.6305 35.6401 27.8608 35.8825C28.4165 35.9921 29.7934 36.3382 30.2722 36.3309C30.5014 35.2208 32.2773 27.1157 32.2149 26.7344L12.695 22.8315L3.27749 20.9692C3.42838 21.6762 5.93111 28.9108 6.42005 30.3496L6.92785 31.6817C7.07149 31.7868 13.0519 32.932 13.7454 33.062C14.8873 33.2752 16.0349 33.5221 17.1709 33.7427C17.7585 33.8566 18.3345 33.9749 18.9134 34.0888C19.2065 34.1473 19.4995 34.2115 19.7883 34.2685C19.9333 34.2977 20.0509 34.3182 20.196 34.3459C20.2192 34.3503 20.4121 34.3927 20.4252 34.397L20.5804 34.4671C20.592 34.473 20.6152 34.4847 20.6298 34.4964L20.6341 34.4949ZM33.9501 19.5787L33.9109 21.8573C33.9791 22.0778 36.2192 22.4036 36.2207 22.4036C36.3948 22.3919 40.3759 19.6035 41.0912 19.0587L41.3335 18.8337C40.6893 18.7636 40.0335 18.584 39.3821 18.454C38.1532 18.2086 38.6857 18.2933 37.718 18.7388C36.5907 19.2573 35.3458 19.5159 33.9501 19.5772V19.5787ZM8.02905 18.3064C8.02035 18.3181 8.00294 18.3196 7.99858 18.3386L6.1676 19.6809L12.5122 20.9546L12.5267 15.6159C12.4643 14.9922 12.592 15.4041 12.3497 15.2551C12.2685 15.407 10.5216 16.5887 10.2373 16.7873C9.8789 17.04 9.53794 17.2898 9.17088 17.5352C8.78785 17.7908 8.43529 18.0932 8.0305 18.3064H8.02905ZM32.4934 35.697C35.3386 33.7485 38.1808 31.6846 41.0317 29.7156C41.4452 29.4308 41.8921 27.6912 42.0807 27.1288C42.3897 26.2057 42.706 25.3351 43.0049 24.4164C43.3401 23.3822 44.7329 19.5232 44.8533 18.8644L35.1703 25.6375C34.6538 26.0172 34.5029 25.8741 34.3505 26.6395C34.1082 27.8606 32.5036 35.2092 32.492 35.6956L32.4934 35.697ZM15.4865 21.4279L24.8706 21.4498L24.875 19.1317L18.0052 19.1405L18.0211 14.8169L23.8405 14.7819V12.5222L18.0168 12.5208L18.0081 8.73474L24.8721 8.72743L24.8677 6.47656L15.5227 6.47364L15.4894 21.4264L15.4865 21.4279ZM28.4238 21.4468L30.9338 21.4512L30.9367 16.5975C33.0535 16.5624 35.4866 16.7917 37.039 15.6758C38.3999 14.6971 38.9193 12.6478 38.6436 10.3721C38.3854 8.23665 37.2856 7.07835 35.3153 6.65768C33.6382 6.30128 30.3171 6.45611 28.4571 6.47656L28.4238 21.4468ZM30.9323 14.3597C31.9798 14.3743 33.7499 14.4371 34.6755 14.1377C35.7564 13.7872 36.0654 12.8932 36.0872 11.5582C36.138 8.34912 33.6802 8.67777 30.9512 8.70844L30.9309 14.3597H30.9323ZM18.8234 43.8124C23.5387 43.8124 27.3603 47.6598 27.3603 52.4055C27.3603 57.1526 23.5387 61 18.8234 61C14.1096 61 10.2866 57.1526 10.2866 52.4055C10.2866 47.6598 14.1081 43.8124 18.8234 43.8124ZM18.8234 49.1015C20.637 49.1015 22.1067 50.5811 22.1067 52.4069C22.1067 54.2328 20.637 55.7124 18.8234 55.7124C17.0099 55.7124 15.5401 54.2328 15.5401 52.4069C15.5401 50.5811 17.0099 49.1015 18.8234 49.1015ZM60.392 43.8124C65.1058 43.8124 68.9288 47.6598 68.9288 52.4055C68.9288 57.1526 65.1073 61 60.392 61C55.6767 61 51.8551 57.1526 51.8551 52.4055C51.8551 47.6598 55.6767 43.8124 60.392 43.8124ZM60.392 49.1015C62.2056 49.1015 63.6753 50.5811 63.6753 52.4069C63.6753 54.2328 62.2056 55.7124 60.392 55.7124C58.5784 55.7124 57.1087 54.2328 57.1087 52.4069C57.1087 50.5811 58.5784 49.1015 60.392 49.1015ZM48.9128 22.4985C48.4921 22.4985 48.1467 22.6621 48.1467 22.2444V6.51015C48.1467 6.0924 48.4921 5.736 48.9128 5.71848C48.9128 5.71848 56.9955 5.37522 59.8494 6.25892C61.2669 6.69712 67.7507 9.52057 69.0057 22.5H48.9128V22.4985ZM79.1139 40.3405C79.1139 40.4558 79.0863 40.526 79.0399 40.5669C79.1516 40.5888 79.2198 40.6589 79.2198 40.8444V48.6487C79.2198 49.0679 78.8745 49.4097 78.4537 49.4097H69.8124C68.5502 45.3826 64.8099 42.4628 60.3934 42.4628C55.9756 42.4628 52.2367 45.3826 50.973 49.4097H28.2439C26.9816 45.3826 23.2413 42.4628 18.8249 42.4628C14.407 42.4628 10.6682 45.3826 9.40592 49.4097H0.755897C0.343853 49.4097 0 49.0664 0 48.6487V41.3527C0 40.9335 0.345304 40.5917 0.755897 40.5917H48.302C48.2323 40.5552 48.1903 40.4821 48.1903 40.339V30.0647L48.1946 29.9946L48.1903 29.923V23.3238C48.1903 22.9046 48.5356 23.0711 48.9563 23.0711H68.2832C68.704 23.0711 69.3278 23.2668 69.6717 23.5064L78.5974 29.739C78.6351 29.7653 78.667 29.7916 78.6946 29.8179C79.0326 29.8632 79.1139 30.183 79.1139 30.5657V30.687C80.1861 30.9163 81 32.0016 81 33.3074C81 34.6118 80.1861 35.6956 79.1139 35.9234V40.339V40.3405Z" fill="white"/>
</svg>
