<svg width="48" height="52" viewBox="0 0 48 52" fill="none" xmlns="http://www.w3.org/2000/svg">
<path fill-rule="evenodd" clip-rule="evenodd" d="M32.0155 47.4611C36.499 46.1608 41.2024 45.4712 45.7655 44.8359C46.7483 44.7024 47.6716 45.3592 47.755 46.3013C47.9086 47.2432 47.2169 48.116 46.3044 48.2486C41.8817 48.8606 37.3193 49.5131 33.046 50.7642C32.1354 51.0354 31.1432 50.5167 30.8492 49.6051C30.5553 48.6941 31.1049 47.7329 32.0155 47.4611Z" fill="white"/>
<path fill-rule="evenodd" clip-rule="evenodd" d="M18.1314 30.0949C25.2746 22.7487 33.3449 16.3225 40.3448 8.78376C40.9681 8.08011 42.0927 8.02736 42.8049 8.66639C43.5171 9.30611 43.6022 10.3972 42.9086 11.1018C35.909 18.6619 27.839 25.1087 20.696 32.4764C20.0022 33.1645 18.8774 33.1896 18.165 32.532C17.5229 31.8741 17.4375 30.783 18.1314 30.0949Z" fill="white"/>
<path fill-rule="evenodd" clip-rule="evenodd" d="M4.1737 2.41014C4.01996 6.56053 3.86662 10.7109 3.71288 14.862C3.72599 15.812 2.89183 16.5572 1.90668 16.5245C0.921521 16.4912 0.207554 15.6923 0.194438 14.7416C0.348091 10.5843 0.501341 6.42772 0.655003 2.27113C0.712219 1.32016 1.54617 0.579812 2.5314 0.617935C3.4463 0.657029 4.23093 1.45986 4.1737 2.41014Z" fill="white"/>
</svg>
